<?xml version="1.0" encoding="UTF-8"?>
<svg width="31px" height="42px" viewBox="0 0 31 42" version="1.1" xmlns="http://www.w3.org/2000/svg" xmlns:xlink="http://www.w3.org/1999/xlink">
    <!-- Generator: Sketch 55 (78076) - https://sketchapp.com -->
    <title>Group</title>
    <desc>Created with Sketch.</desc>
    <g id="Symbols" stroke="none" stroke-width="1" fill="none" fill-rule="evenodd">
        <g id="icon/document-type" transform="translate(-14.000000, -9.000000)">
            <g id="Group" transform="translate(14.000000, 9.000000)">
                <path d="M3,0 L20.7786874,0 L31,10.5722504 L31,39 C31,40.6568542 29.6568542,42 28,42 L3,42 C1.34314575,42 0,40.6568542 0,39 L0,3 C0,1.34314575 1.34314575,0 3,0 Z" id="white-background" fill="#FFFFFF"></path>
                <path d="M30.0010395,11.0053504 L30.0010395,11 L20.3336798,1 L2.70496515,1 C1.81101871,1 0.998960499,1.896 0.998960499,2.9047619 L0.998960499,39.0952381 C0.998960499,40.104 1.81101871,41 2.70496515,41 L28.2950349,41 C29.1889813,41 30.0010395,40.104 30.0010395,39.0952381 L30.0010395,12 L22.2954799,12 C21.2120077,12 20.3336798,11.0430649 20.3336798,9.8660465 L20.3336798,1 L30.0010395,11.0053504 Z M20.7570879,0 L31,10.5953564 L31,39.0952381 C31,40.630553 29.7687801,42 28.2950349,42 L2.70496515,42 C1.23121988,42 -9.41469125e-13,40.630553 -9.41469125e-13,39.0952381 L-9.41469125e-13,2.9047619 C-9.41469125e-13,1.36944705 1.23121988,0 2.70496515,0 L20.7570879,0 Z" id="shape-color" fill="#CCD8DD"></path>
            </g>
        </g>
    </g>
</svg>