<svg width="30" height="30" viewBox="0 0 30 30" xmlns="http://www.w3.org/2000/svg"><g fill="none" fill-rule="evenodd"><path d="M2.879 30c-1.53 0-2.77-1.272-2.77-2.842V2.842C.109 1.272 1.349 0 2.879 0H26.58c1.53 0 2.77 1.272 2.77 2.842v24.316c0 1.57-1.24 2.842-2.77 2.842H2.88z" fill="#00B0FF"/><path d="M24.406 13.914l-2.659-6.363A.885.885 0 0020.933 7H8.527a.885.885 0 00-.814.55l-2.659 6.364a.927.927 0 00.075.859c.164.256.442.409.74.409h.886v7.272c0 .502.396.91.886.91h8.861V17h3.545v6.363h1.772c.49 0 .886-.407.886-.909v-7.272h.886a.88.88 0 00.74-.409.93.93 0 00.075-.859zm-10.562 6.722h-4.43V17h4.43v3.636zm8.403-7.272h-2.418l-1.266-4.546h1.786l1.898 4.546zm-10.773 0l1.266-4.546h1.104v4.546h-2.37zm4.142-4.546h1.104l1.266 4.546h-2.37V8.818zm-6.505 0h1.786L9.63 13.364H7.212l1.9-4.546z" fill="#FFF" fill-rule="nonzero"/></g></svg>