<svg width="31" height="30" viewBox="0 0 31 30" xmlns="http://www.w3.org/2000/svg"><g fill="none" fill-rule="evenodd"><path d="M2.95 30A2.842 2.842 0 01.11 27.158V2.842A2.842 2.842 0 012.95 0h24.316a2.842 2.842 0 012.842 2.842v24.316A2.842 2.842 0 0127.267 30H2.95z" fill="#00B0FF"/><path d="M17.709 13.2h4.8V18h-4.8z"/><path d="M14.633 5c.526 0 .952.426.952.952v.953h6.667c1.051 0 1.904.853 1.904 1.905v14.285A1.905 1.905 0 0122.252 25H7.013a1.905 1.905 0 01-1.904-1.905V8.81c0-1.052.853-1.905 1.904-1.905h.953v-.953c0-.526.426-.952.952-.952zM7.966 8.81h-.953v14.285H22.25l.003-14.285h-6.667v8.571a.953.953 0 01-1.626.673l-2.184-2.184-2.183 2.184a.953.953 0 01-1.626-.673V8.81zm12.38 10.476v1.904H8.919v-1.904h11.429zm0-2.857v1.904h-3.809V16.43h3.81zm0-2.858v1.905h-3.809v-1.905h3.81zM13.68 6.905H9.87v8.177l1.232-1.232a.95.95 0 011.347 0l1.231 1.232V6.905zm6.667 3.81v1.904h-3.81v-1.905h3.81z" fill="#FFF" fill-rule="nonzero"/></g></svg>