<svg width="30" height="30" viewBox="0 0 30 30" xmlns="http://www.w3.org/2000/svg"><g fill="none" fill-rule="evenodd"><path d="M2.842 30A2.842 2.842 0 010 27.158V2.842A2.842 2.842 0 012.842 0h24.316A2.842 2.842 0 0130 2.842v24.316A2.842 2.842 0 0127.158 30H2.842z" fill="#829FAB"/><path d="M15 6.25a5 5 0 015 5V15h.248a1 1 0 011.002 1.004v6.742a1 1 0 01-1.002 1.004H9.752a1 1 0 01-1.002-1.004v-6.742A1 1 0 019.752 15H10v-3.75a5 5 0 015-5zm0 11.25a1.875 1.875 0 100 3.75 1.875 1.875 0 000-3.75zm0-8.75a2.5 2.5 0 00-2.5 2.5V15h5v-3.75a2.5 2.5 0 00-2.5-2.5z" fill="#FFF"/></g></svg>