<svg viewBox="0 0 24 24" fill="none" xmlns="http://www.w3.org/2000/svg"><path fill-rule="evenodd" clip-rule="evenodd" d="M12.112 3a8.88 8.88 0 0 1 4.566 1.226 9.13 9.13 0 0 1 3.32 3.319 8.877 8.877 0 0 1 1.225 4.567 8.87 8.87 0 0 1-1.226 4.566 9.13 9.13 0 0 1-3.319 3.32 8.877 8.877 0 0 1-4.566 1.225 8.877 8.877 0 0 1-4.567-1.226 9.13 9.13 0 0 1-3.32-3.319A8.878 8.878 0 0 1 3 12.112c0-1.65.409-3.171 1.226-4.567a9.13 9.13 0 0 1 3.319-3.32A8.878 8.878 0 0 1 12.112 3Zm-.781 3.601a.398.398 0 0 0-.293.12.398.398 0 0 0-.12.292v3.905H7.015a.398.398 0 0 0-.293.12c-.08.08-.12.17-.12.27v1.585a.4.4 0 0 0 .13.282c.088.086.182.13.283.13h3.905v3.905c0 .115.04.21.119.282a.42.42 0 0 0 .293.108h1.562c.116 0 .213-.04.293-.12a.37.37 0 0 0 .12-.27v-3.905h3.904c.101 0 .192-.04.271-.12.08-.08.12-.177.12-.292v-1.584a.381.381 0 0 0-.109-.282.382.382 0 0 0-.282-.109h-3.905V7.013a.398.398 0 0 0-.12-.292.398.398 0 0 0-.292-.12H11.33Z" fill="currentColor"/></svg>