<svg viewBox="0 0 24 24" fill="none" xmlns="http://www.w3.org/2000/svg"><path fill-rule="evenodd" clip-rule="evenodd" d="M20.355 5a.87.87 0 0 1 .868.868v1.041a.87.87 0 0 1-.868.868H3.868A.87.87 0 0 1 3 6.909V5.868A.87.87 0 0 1 3.868 5h16.487Zm-2.841 5.64a.87.87 0 0 1 .867.868v1.042a.87.87 0 0 1-.867.867H6.73a.87.87 0 0 1-.867-.867v-1.042a.87.87 0 0 1 .867-.867h10.783Zm-3.016 5.641a.87.87 0 0 1 .868.868v1.041a.87.87 0 0 1-.868.868H9.725a.87.87 0 0 1-.868-.868v-1.04a.87.87 0 0 1 .868-.868h4.773Z" fill="currentColor"/></svg>