<svg xmlns="http://www.w3.org/2000/svg" fill="none" viewBox="0 0 24 24"><path fill="currentColor" fill-rule="evenodd" d="M7.20869 3c.3688 0 .65083.30372.65083.65083v3.55786c0 .3688-.28203.65083-.65083.65083H3.65083C3.30372 7.85952 3 7.57749 3 7.20869V3.65083C3 3.30372 3.30372 3 3.65083 3h3.55786zm6.70351 0c.3471 0 .6508.30372.6508.65083v3.55786c0 .3688-.3037.65083-.6508.65083h-3.5795c-.34715 0-.65087-.28203-.65087-.65083V3.65083c0-.34711.30372-.65083.65087-.65083h3.5795zm6.6602 0c.3688 0 .6508.30372.6508.65083v3.55786c0 .3688-.282.65083-.6508.65083h-3.5579c-.3471 0-.6508-.28203-.6508-.65083V3.65083c0-.34711.3037-.65083.6508-.65083h3.5579zM7.20869 9.68183c.3688 0 .65083.30372.65083.65087v3.5578c0 .3688-.28203.6508-.65083.6508H3.65083c-.34711 0-.65083-.282-.65083-.6508v-3.5578c0-.34715.30372-.65087.65083-.65087h3.55786zm13.36371 0c.3688 0 .6508.30372.6508.65087v3.5578c0 .3688-.282.6508-.6508.6508h-3.5579c-.3471 0-.6508-.282-.6508-.6508v-3.5578c0-.34715.3037-.65087.6508-.65087h3.5579zm-6.6819.0217c.3688 0 .6508.28202.6508.65087v3.5578c0 .3471-.282.6508-.6508.6508h-3.5578c-.36884 0-.65087-.3037-.65087-.6508v-3.5578c0-.36885.28203-.65087.65087-.65087h3.5578zM7.20869 16.3637c.3688 0 .65083.3037.65083.6508v3.5579c0 .3688-.28203.6508-.65083.6508H3.65083c-.34711 0-.65083-.282-.65083-.6508v-3.5579c0-.3471.30372-.6508.65083-.6508h3.55786zm6.70351 0c.3471 0 .6508.3037.6508.6508v3.5579c0 .3688-.3037.6508-.6508.6508h-3.5795c-.34715 0-.65087-.282-.65087-.6508v-3.5579c0-.3471.30372-.6508.65087-.6508h3.5795zm6.6602 0c.3688 0 .6508.3037.6508.6508v3.5579c0 .3688-.282.6508-.6508.6508h-3.5579c-.3471 0-.6508-.282-.6508-.6508v-3.5579c0-.3471.3037-.6508.6508-.6508h3.5579z" clip-rule="evenodd"/></svg>
