<svg xmlns="http://www.w3.org/2000/svg" viewBox="0 0 12 14"><path fill="currentColor" fill-rule="evenodd" d="M9.41677.333336c.26351 0 .47727.213616.47727.477274V11.6255c0 .2603-.21376.4773-.47727.4773H1.14402c-.263656 0-.477272-.217-.477272-.4773V.81061c0-.263658.213616-.477274.477272-.477274h8.27275zm-.47727.954544H1.6213v9.86032h7.3182V1.28788zm2.0682.63637c.2635 0 .4773.21361.4773.47727V13.2164c0 .2603-.2138.4773-.4773.4773H2.73494c-.26366 0-.47728-.217-.47728-.4773v-.4773h8.27274V1.92425h.4773z" clip-rule="evenodd"/></svg>
