<svg viewBox="0 0 24 24" fill="none" xmlns="http://www.w3.org/2000/svg"><path fill-rule="evenodd" clip-rule="evenodd" d="M11.914 22.046h-.108c0-.015-.015-.022-.044-.022l-.043-.022a.147.147 0 0 1-.108-.043l-9.069-4.296a.921.921 0 0 1-.39-.336.899.899 0 0 1-.152-.51V7.163l.022-.087v-.043l.021-.043v-.044h.022v-.043l.065-.13h.022V6.75l.022-.043h.021v-.022l.022-.022.043-.065h.022c0-.014.007-.022.022-.022l.087-.086h.021c0-.015.007-.022.022-.022l.022-.022h.021v-.021h.044v-.022h.021l9.069-4.296A.924.924 0 0 1 12.023 2c.13 0 .267.036.412.108l9.068 4.296h.022v.022h.043v.021h.022l.022.022c.014 0 .021.007.021.022h.022l.087.086c.014 0 .021.008.021.022h.022l.043.065.022.022v.022h.022l.022.043v.022h.021l.065.13v.043h.022v.044l.022.043v.043l.021.087v9.654a.9.9 0 0 1-.151.51.921.921 0 0 1-.39.336l-9.07 4.296a.147.147 0 0 1-.108.043c0 .015-.014.022-.043.022-.029 0-.043.007-.043.021h-.109l-.043.022h-.13l-.044-.021ZM5.19 7.272l2.17 1.02 6.833-3.233-2.17-1.041L5.19 7.272Zm4.404 2.082 2.43 1.15 6.833-3.232-2.43-1.172-6.833 3.254ZM3.909 16.21l7.16 3.384v-7.42L3.908 8.77v7.44Zm9.068-4.035v7.419l7.16-3.384V8.769l-7.16 3.406ZM8.79 14.8l-3.384-1.606a.82.82 0 0 1-.401-.347.967.967 0 0 1-.141-.499.912.912 0 0 1 .455-.813.967.967 0 0 1 .5-.141c.158 0 .296.028.411.086l3.363 1.606a.82.82 0 0 1 .401.347c.094.159.141.332.141.52a.913.913 0 0 1-.434.803.951.951 0 0 1-.52.152.89.89 0 0 1-.39-.108Z" fill="currentColor"/></svg>