<svg viewBox="0 0 24 24" fill="none" xmlns="http://www.w3.org/2000/svg"><path fill-rule="evenodd" clip-rule="evenodd" d="M12.09 3c1.649 0 3.167.409 4.556 1.226a9.183 9.183 0 0 1 3.308 3.308c.817 1.389 1.226 2.907 1.226 4.556s-.405 3.17-1.215 4.567a8.963 8.963 0 0 1-3.308 3.308 8.939 8.939 0 0 1-4.567 1.215 8.824 8.824 0 0 1-4.556-1.226 9.183 9.183 0 0 1-3.308-3.308C3.409 15.257 3 13.739 3 12.09s.409-3.167 1.226-4.556a9.183 9.183 0 0 1 3.308-3.308A8.824 8.824 0 0 1 12.09 3Zm6.834 9.09a6.58 6.58 0 0 0-.922-3.406A6.93 6.93 0 0 0 15.518 6.2a6.62 6.62 0 0 0-3.428-.922c-1.446 0-2.763.42-3.948 1.258l9.502 9.502a6.543 6.543 0 0 0 1.28-3.948Zm-13.646 0c0 1.23.307 2.364.922 3.406a6.931 6.931 0 0 0 2.484 2.484 6.581 6.581 0 0 0 3.406.922 6.84 6.84 0 0 0 2.115-.326 6.668 6.668 0 0 0 1.855-.932L6.558 8.12c-.853 1.2-1.28 2.524-1.28 3.97Z" fill="currentColor"/></svg>