<svg xmlns="http://www.w3.org/2000/svg" fill="none" viewBox="0 0 24 24"><path fill="currentColor" fill-rule="evenodd" d="M12.0899 3c1.6487 0 3.1673.40857 4.5558 1.22572 1.3884.81716 2.4912 1.91993 3.3083 3.30837.8172 1.38844 1.2258 2.90701 1.2258 4.55581 0 1.6487-.405 3.1709-1.2149 4.5666-.8099 1.3957-1.9127 2.4985-3.3084 3.3084-1.3957.8099-2.9179 1.2149-4.5666 1.2149-1.6488 0-3.16737-.4086-4.55581-1.2258-1.38844-.8171-2.49121-1.9199-3.30837-3.3083C3.40857 15.2572 3 13.7386 3 12.0899c0-1.6488.40857-3.16737 1.22572-4.55581.81716-1.38844 1.91993-2.49121 3.30837-3.30837C8.92253 3.40857 10.4411 3 12.0899 3zm6.8337 9.0899c0-1.2294-.3074-2.36469-.9221-3.40602-.6146-1.04132-1.4426-1.86931-2.4839-2.48398-1.0414-.61468-2.1839-.92201-3.4277-.92201-1.4463 0-2.76241.41942-3.94837 1.25827l9.50207 9.50204c.8533-1.1715 1.28-2.4876 1.28-3.9483zm-13.64571 0c0 1.2293.30733 2.3646.92201 3.406.61467 1.0413 1.44266 1.8693 2.48398 2.484 1.04133.6146 2.17662.922 3.40602.922.7376 0 1.4426-.1085 2.1152-.3255.6725-.2169 1.2908-.5278 1.8548-.9328L6.55785 8.11983c-.85331 1.20042-1.27996 2.52377-1.27996 3.97007z" clip-rule="evenodd"/></svg>
