<svg viewBox="0 0 24 24" fill="none" xmlns="http://www.w3.org/2000/svg"><path fill-rule="evenodd" clip-rule="evenodd" d="M6.252 4c.188 0 .362.061.52.184.16.123.268.286.326.489l.477 1.909h11.78l.13-.39a.863.863 0 0 1 .326-.456.836.836 0 0 1 .499-.174c.13 0 .217.007.26.022a.92.92 0 0 1 .651.867c0 .044-.014.123-.043.24l-2.3 7.614a.823.823 0 0 1-.293.466.82.82 0 0 1-.531.185H8.508a.876.876 0 0 1-.553-.196.834.834 0 0 1-.314-.477L5.536 5.78H2.89a.857.857 0 0 1-.629-.26.857.857 0 0 1-.26-.63.86.86 0 0 1 .26-.629A.857.857 0 0 1 2.89 4h3.362Zm11.13 9.177.043-.174 1.41-4.664H8.009l1.172 4.838h8.2Zm-7.55-3.298h3.21v1.78h-2.798l-.412-1.78Zm3.97 0h3.145l-.477 1.78h-2.69l.022-1.78Zm-3.19 6.075c.492 0 .915.173 1.27.52.354.347.531.767.531 1.258 0 .507-.173.933-.52 1.28a1.74 1.74 0 0 1-1.28.521c-.492 0-.915-.177-1.27-.532a1.732 1.732 0 0 1-.531-1.269c0-.491.177-.91.531-1.258a1.75 1.75 0 0 1 1.27-.52Zm5.446 0c.492 0 .915.173 1.269.52.354.347.531.767.531 1.258 0 .492-.177.915-.531 1.27a1.732 1.732 0 0 1-1.27.531 1.75 1.75 0 0 1-1.268-.52 1.722 1.722 0 0 1-.532-1.28c0-.492.177-.912.532-1.259a1.75 1.75 0 0 1 1.269-.52Z" fill="currentColor"/></svg>