<svg width="24" height="24" viewBox="0 0 24 24" fill="none" xmlns="http://www.w3.org/2000/svg">
<path fill-rule="evenodd" clip-rule="evenodd" d="M4 5.43182C4 5.04132 4.14101 4.70506 4.42304 4.42304C4.70506 4.14101 5.04132 4 5.43182 4H18.7955C19.186 4 19.5222 4.14101 19.8042 4.42304C20.0863 4.70506 20.2273 5.04132 20.2273 5.43182V18.7955C20.2273 19.186 20.0863 19.5222 19.8042 19.8042C19.5222 20.0863 19.186 20.2273 18.7955 20.2273H5.43182C5.04132 20.2273 4.70506 20.0863 4.42304 19.8042C4.14101 19.5222 4 19.186 4 18.7955V5.43182ZM18.7087 18.6653V5.4969H5.45351V18.6653H18.7087Z" fill="currentColor"/>
</svg>
