<svg viewBox="0 0 24 24" fill="none" xmlns="http://www.w3.org/2000/svg"><path fill-rule="evenodd" clip-rule="evenodd" d="m6.601 17.472-.021-.282c-.998-.564-1.808-1.273-2.43-2.126a5.822 5.822 0 0 1-1.107-2.82A8.622 8.622 0 0 1 3 11.55c0-1.215.358-2.361 1.074-3.439.716-1.077 1.7-1.978 2.95-2.7 1.251-.724 2.643-1.172 4.176-1.346.405-.043.818-.065 1.237-.065 1.475 0 2.842.268 4.1.803 1.259.535 2.289 1.276 3.092 2.223.802.948 1.276 2.014 1.42 3.2.03.29.044.514.044.673 0 1.215-.358 2.364-1.074 3.45-.716 1.084-1.7 1.984-2.95 2.7-1.251.716-2.65 1.16-4.198 1.334-.579.058-1.02.087-1.324.087a14.3 14.3 0 0 1-1.28-.087c-.795.825-1.612 1.418-2.45 1.78-.84.36-1.585.541-2.235.541-.319 0-.55-.04-.695-.119-.144-.08-.159-.163-.043-.25 1.171-.896 1.757-1.85 1.757-2.863Zm5.446-2.864a.166.166 0 0 0 .14-.075.348.348 0 0 0 .055-.207v-2.169h3.666v-1.996h-3.666v-2.17a.348.348 0 0 0-.055-.205.166.166 0 0 0-.14-.076.295.295 0 0 0-.218.086l-3.883 3.06a.39.39 0 0 0-.152.303c0 .116.051.217.152.304l3.883 3.059c.058.057.13.086.217.086Z" fill="currentColor"/></svg>