<svg xmlns="http://www.w3.org/2000/svg" fill="none" viewBox="0 0 24 24"><path fill="currentColor" fill-rule="evenodd" d="M12.0227 5c.6942 0 1.3342.16994 1.92.50981.5857.33988 1.0485.80269 1.3884 1.38843.3399.58575.5098 1.22572.5098 1.91994 0 .76653-.2097 1.46432-.6291 2.09352-.4194.6291-.969 1.0955-1.6488 1.3993.998.1301 1.8946.376 2.6901.7376.7955.3615 1.421.8026 1.8766 1.3233.4555.5207.6833 1.0775.6833 1.6705v2.9721c0 .3471-.1229.6436-.3688.8894-.2459.2459-.5496.3688-.9111.3688H6.5124c-.36158 0-.66529-.1229-.91116-.3688-.24587-.2458-.3688-.5423-.3688-.8894v-2.9721c0-.593.22779-1.1498.68337-1.6705.45558-.5207 1.08109-.9618 1.87655-1.3233.79545-.3616 1.69214-.6075 2.69004-.7376-.67972-.3038-1.2293-.7702-1.64872-1.3993-.41943-.6292-.62913-1.32699-.62913-2.09352 0-.69422.16993-1.33419.50981-1.91994.33988-.58574.80268-1.04855 1.38844-1.38843C10.6885 5.16994 11.3285 5 12.0227 5zm-3.55782.65083c-.3905.43388-.6906.92561-.90031 1.4752C7.35485 7.67562 7.25 8.23967 7.25 8.81818c0 .95455.26033 1.82952.78099 2.62502.05785.1157.08678.1952.08678.2386 0 .1302-.08678.2314-.26033.3037-.59298.2314-1.14979.5279-1.67046.8895-.6219.4194-1.09555.9039-1.42097 1.4535-.32541.5496-.48812 1.1209-.48812 1.7139v2.2128H2.97624c-.2748 0-.5062-.094-.69422-.2821C2.09401 17.7851 2 17.5537 2 17.2789v-3.3626c0-.6942.38326-1.3089 1.14979-1.844.76654-.5351 1.73553-.8822 2.90703-1.0413-.52067-.2314-.9437-.5894-1.26911-1.07387-.32542-.48451-.48812-1.02324-.48812-1.61622 0-.53513.13378-1.03047.40134-1.48605.26756-.45559.62551-.81715 1.07386-1.08472.44835-.26756.94008-.40134 1.47521-.40134.40496 0 .80992.09401 1.21488.28203zm8.33062-.28203c.5351 0 1.0268.13378 1.4752.40134.4483.26757.8063.62913 1.0738 1.08472.2676.45558.4014.95092.4014 1.48605 0 .59298-.1627 1.13171-.4882 1.61622-.3254.48447-.7484.84247-1.2691 1.07387 1.1715.1591 2.1405.5062 2.9071 1.0413.7665.5351 1.1498 1.1498 1.1498 1.844v3.3626c0 .2748-.0941.5062-.2821.6942-.188.1881-.4194.2821-.6942.2821h-1.3016v-2.2128c0-.593-.1627-1.1643-.4882-1.7139-.3254-.5496-.799-1.0341-1.4209-1.4535-.5207-.3616-1.0775-.6581-1.6705-.8895-.1735-.0723-.2603-.1735-.2603-.3037 0-.0434.0289-.1229.0868-.2386.5206-.7955.781-1.67047.781-2.62502 0-.57851-.1049-1.14256-.3146-1.69215s-.5098-1.04132-.9003-1.4752c.4049-.18802.8099-.28203 1.2149-.28203z" clip-rule="evenodd"/></svg>
