<svg viewBox="0 0 24 24" fill="none" xmlns="http://www.w3.org/2000/svg"><path fill-rule="evenodd" clip-rule="evenodd" d="M12.023 5c.694 0 1.334.17 1.92.51.585.34 1.048.803 1.388 1.388.34.586.51 1.226.51 1.92a3.69 3.69 0 0 1-.63 2.094 3.82 3.82 0 0 1-1.648 1.399c.998.13 1.895.376 2.69.738.796.361 1.421.802 1.877 1.323.455.52.683 1.077.683 1.67v2.973c0 .347-.123.643-.369.889s-.55.369-.91.369H6.511c-.361 0-.665-.123-.91-.37a1.212 1.212 0 0 1-.37-.888v-2.973c0-.593.228-1.15.684-1.67.455-.52 1.08-.962 1.876-1.323.796-.362 1.693-.608 2.69-.738a3.821 3.821 0 0 1-1.648-1.4 3.693 3.693 0 0 1-.63-2.093c0-.694.17-1.334.51-1.92a3.761 3.761 0 0 1 1.389-1.388 3.758 3.758 0 0 1 1.92-.51Zm-3.558.65a4.68 4.68 0 0 0-.9 1.476 4.709 4.709 0 0 0-.315 1.692c0 .955.26 1.83.781 2.625a.682.682 0 0 1 .087.239c0 .13-.087.231-.26.303a8.045 8.045 0 0 0-1.671.89c-.622.42-1.096.904-1.421 1.454a3.318 3.318 0 0 0-.488 1.713v2.213H2.976a.943.943 0 0 1-.694-.282A.943.943 0 0 1 2 17.28v-3.363c0-.694.383-1.309 1.15-1.844.766-.535 1.735-.882 2.907-1.041a2.945 2.945 0 0 1-1.27-1.074A2.835 2.835 0 0 1 4.3 8.341c0-.535.133-1.03.4-1.486A3.027 3.027 0 0 1 5.776 5.77a2.83 2.83 0 0 1 1.475-.401c.405 0 .81.094 1.215.282Zm8.33-.281c.536 0 1.027.134 1.476.401.448.268.806.63 1.073 1.085.268.455.402.95.402 1.486 0 .593-.163 1.132-.488 1.616a2.945 2.945 0 0 1-1.27 1.074c1.172.16 2.141.506 2.908 1.041.766.535 1.15 1.15 1.15 1.844v3.363a.944.944 0 0 1-.283.694.943.943 0 0 1-.694.282h-1.301v-2.213c0-.593-.163-1.164-.489-1.714-.325-.55-.799-1.034-1.42-1.453a8.046 8.046 0 0 0-1.671-.89c-.173-.072-.26-.173-.26-.303 0-.044.029-.123.087-.239.52-.795.78-1.67.78-2.625a4.71 4.71 0 0 0-.314-1.692 4.68 4.68 0 0 0-.9-1.475c.405-.188.81-.282 1.215-.282Z" fill="currentColor"/></svg>