<svg xmlns="http://www.w3.org/2000/svg" fill="none" viewBox="0 0 24 24"><path fill="currentColor" fill-rule="evenodd" d="M20.5723 3c.188 0 .3435.06147.4664.1844.123.12294.1844.27841.1844.46643V20.5723c0 .188-.0614.3435-.1844.4664-.1229.123-.2784.1844-.4664.1844h-8.2004V9.81198c0-.30372-.1085-.56043-.3254-.77014-.217-.20971-.4701-.31457-.7593-.31457H8.59711V3.65083c0-.18802.06508-.34349.19525-.46643C8.92252 3.06147 9.07438 3 9.24793 3H20.5723zM10.094 4.95248v2.21281h2.2128V4.95248H10.094zm3.7748 0v2.21281h2.2128V4.95248h-2.2128zm3.7748 0v2.21281h2.2128V4.95248h-2.2128zm-3.7748 3.77479v2.21283h2.2128V8.72727h-2.2128zm3.7748 0v2.21283h2.2128V8.72727h-2.2128zM9.98554 10.4194c.18806 0 .34346.0615.46646.1844.1229.123.1844.2784.1844.4664v10.1529H3.65083c-.17356 0-.32542-.065-.45558-.1952C3.06508 20.8977 3 20.7386 3 20.5506v-9.4804c0-.188.06508-.3434.19525-.4664.13016-.1229.28202-.1844.45558-.1844h6.33471zm3.88326 2.1694v2.2129h2.2128v-2.2129h-2.2128zm3.7748 0v2.2129h2.2128v-2.2129h-2.2128zm-3.7748 3.9701V18.75h2.2128v-2.1911h-2.2128zm3.7748 0V18.75h2.2128v-2.1911h-2.2128z" clip-rule="evenodd"/></svg>
