<svg viewBox="0 0 24 24" fill="currentColor" xmlns="http://www.w3.org/2000/svg"><path fill-rule="evenodd" clip-rule="evenodd" d="M12.12 3.679H3.686v15.11h5.782v1.68H3.687c-.93 0-1.687-.754-1.687-1.68V3.68C2 2.754 2.756 2 3.687 2h9.625l3.867 3.85v3.286h-1.687v-2.1H12.12V3.68ZM5.371 9.555h5.3v1.68h-5.3v-1.68Zm0 3.358h3.614v1.68H5.372v-1.68Zm10.783-2.548c3.228 0 5.844 2.604 5.844 5.817C22 19.396 19.383 22 16.155 22s-5.844-2.604-5.844-5.818c0-3.213 2.616-5.817 5.844-5.817Zm3.466 5.526v.568a.51.51 0 0 1-.501.513h-1.684c-.278 0-.5.221-.5.498v1.677a.51.51 0 0 1-.515.498h-.57a.498.498 0 0 1-.502-.498V17.47a.51.51 0 0 0-.515-.5h-1.67a.512.512 0 0 1-.514-.512v-.568a.5.5 0 0 1 .515-.498h1.67a.522.522 0 0 0 .514-.513v-1.676c0-.277.223-.498.501-.498h.57a.51.51 0 0 1 .515.498v1.676a.51.51 0 0 0 .501.513h1.684c.278 0 .5.221.5.498Z"/></svg>