<svg viewBox="0 0 24 24" fill="none" xmlns="http://www.w3.org/2000/svg"><path fill-rule="evenodd" clip-rule="evenodd" d="M12 2.77a8.89 8.89 0 0 1 4.567 1.226 9.132 9.132 0 0 1 3.32 3.32 8.878 8.878 0 0 1 1.225 4.566 8.878 8.878 0 0 1-1.226 4.567 9.13 9.13 0 0 1-3.32 3.319A8.878 8.878 0 0 1 12 20.994a8.877 8.877 0 0 1-4.566-1.226 9.13 9.13 0 0 1-3.32-3.32 8.877 8.877 0 0 1-1.225-4.566c0-1.649.408-3.17 1.225-4.566a9.13 9.13 0 0 1 3.32-3.32A8.878 8.878 0 0 1 12 2.771ZM9.288 5.483a6.36 6.36 0 0 0-2.19 1.497A6.36 6.36 0 0 0 5.6 9.17a6.878 6.878 0 0 0-.542 2.712c0 .955.18 1.859.542 2.712a6.36 6.36 0 0 0 1.497 2.191 6.36 6.36 0 0 0 2.191 1.497 6.878 6.878 0 0 0 2.712.542 6.87 6.87 0 0 0 2.712-.542 6.36 6.36 0 0 0 2.191-1.497 6.36 6.36 0 0 0 1.497-2.191 6.878 6.878 0 0 0 .542-2.712c0-.954-.18-1.858-.542-2.712a6.359 6.359 0 0 0-1.497-2.19 6.36 6.36 0 0 0-2.191-1.498A6.878 6.878 0 0 0 12 4.94c-.954 0-1.858.18-2.712.542Zm3.493.89c.116 0 .21.036.282.108a.382.382 0 0 1 .109.282v3.905h3.905a.4.4 0 0 1 .293.12c.08.08.119.177.119.292v1.563c0 .115-.04.213-.12.292a.398.398 0 0 1-.292.12h-3.905v3.905a.392.392 0 0 1-.109.27.364.364 0 0 1-.282.12h-1.583a.373.373 0 0 1-.272-.12.373.373 0 0 1-.119-.27v-3.905H6.902a.398.398 0 0 1-.293-.12.398.398 0 0 1-.12-.292V11.08c0-.115.04-.213.12-.292.08-.08.177-.12.293-.12h3.905V6.762c0-.115.04-.21.12-.282a.392.392 0 0 1 .27-.108h1.584Z" fill="currentColor"/></svg>