<svg xmlns="http://www.w3.org/2000/svg" fill="none" viewBox="0 0 24 24"><path fill="currentColor" fill-rule="evenodd" d="M12.75 2c.2121 0 .3902.07197.5341.21591.1439.14394.2159.32197.2159.53409V4h5c.4091 0 .7614.12121 1.0568.36364.2955.24242.4432.53787.4432.88636V6H4v-.75c0-.34849.14773-.64394.44318-.88636C4.73864 4.12121 5.09091 4 5.5 4h5V2.75c0-.21212.0758-.39015.2273-.53409C10.8788 2.07197 11.053 2 11.25 2h1.5zM19 20.5c0 .4242-.1477.7803-.4432 1.0682-.2954.2879-.6477.4318-1.0568.4318h-11c-.40909 0-.76136-.1439-1.05682-.4318C5.14773 21.2803 5 20.9242 5 20.5V7h14v13.5zM7.75 8.5c-.19697 0-.37121.07197-.52273.21591C7.07576 8.85985 7 9.03788 7 9.25v9.5c0 .2121.07197.3902.21591.5341.14394.1439.32197.2159.53409.2159h.5c.21212 0 .39015-.072.53409-.2159C8.92803 19.1402 9 18.9621 9 18.75v-9.5c0-.21212-.07197-.39015-.21591-.53409C8.64015 8.57197 8.46212 8.5 8.25 8.5h-.5zm4 0c-.197 0-.3712.07197-.5227.21591C11.0758 8.85985 11 9.03788 11 9.25v9.5c0 .2121.072.3902.2159.5341.1439.1439.322.2159.5341.2159h.5c.2121 0 .3902-.072.5341-.2159.1439-.1439.2159-.322.2159-.5341v-9.5c0-.21212-.072-.39015-.2159-.53409-.1439-.14394-.322-.21591-.5341-.21591h-.5zm4 0c-.197 0-.3712.07197-.5227.21591C15.0758 8.85985 15 9.03788 15 9.25v9.5c0 .2121.072.3902.2159.5341.1439.1439.322.2159.5341.2159h.5c.2121 0 .3902-.072.5341-.2159.1439-.1439.2159-.322.2159-.5341v-9.5c0-.21212-.072-.39015-.2159-.53409-.1439-.14394-.322-.21591-.5341-.21591h-.5z" clip-rule="evenodd"/></svg>
