<svg viewBox="0 0 24 24" fill="none" xmlns="http://www.w3.org/2000/svg"><path fill-rule="evenodd" clip-rule="evenodd" d="M12.75 2c.212 0 .39.072.534.216a.726.726 0 0 1 .216.534V4h5c.41 0 .761.121 1.057.364.295.242.443.538.443.886V6H4v-.75c0-.348.148-.644.443-.886A1.613 1.613 0 0 1 5.5 4h5V2.75c0-.212.076-.39.227-.534A.737.737 0 0 1 11.25 2h1.5ZM19 20.5c0 .424-.148.78-.443 1.068A1.462 1.462 0 0 1 17.5 22h-11c-.41 0-.761-.144-1.057-.432A1.432 1.432 0 0 1 5 20.5V7h14v13.5ZM7.75 8.5a.737.737 0 0 0-.523.216A.707.707 0 0 0 7 9.25v9.5c0 .212.072.39.216.534a.726.726 0 0 0 .534.216h.5c.212 0 .39-.072.534-.216A.725.725 0 0 0 9 18.75v-9.5a.725.725 0 0 0-.216-.534.725.725 0 0 0-.534-.216h-.5Zm4 0a.737.737 0 0 0-.523.216.707.707 0 0 0-.227.534v9.5c0 .212.072.39.216.534a.726.726 0 0 0 .534.216h.5c.212 0 .39-.072.534-.216A.726.726 0 0 0 13 18.75v-9.5a.726.726 0 0 0-.216-.534.725.725 0 0 0-.534-.216h-.5Zm4 0a.737.737 0 0 0-.523.216.707.707 0 0 0-.227.534v9.5c0 .212.072.39.216.534a.726.726 0 0 0 .534.216h.5c.212 0 .39-.072.534-.216A.726.726 0 0 0 17 18.75v-9.5a.726.726 0 0 0-.216-.534.725.725 0 0 0-.534-.216h-.5Z" fill="currentColor"/></svg>