<svg xmlns="http://www.w3.org/2000/svg" fill="none" viewBox="0 0 24 24"><path fill="currentColor" fill-rule="evenodd" d="M12.0682 3c1.6488 0 3.1673.40495 4.5558 1.21488 1.3884.80992 2.4876 1.90908 3.2975 3.29752.8099 1.38843 1.2149 2.907 1.2149 4.5558 0 1.6488-.405 3.1673-1.2149 4.5558-.8099 1.3884-1.9091 2.4876-3.2975 3.2975-1.3885.8099-2.907 1.2149-4.5558 1.2149-1.6488 0-3.16737-.405-4.5558-1.2149-1.38844-.8099-2.4876-1.9091-3.29752-3.2975C3.40495 15.2355 3 13.717 3 12.0682c0-1.6488.40495-3.16737 1.21488-4.5558.80992-1.38844 1.90908-2.4876 3.29752-3.29752C8.90083 3.40495 10.4194 3 12.0682 3zm-.282 1.43182c.0433.10124.0361.20609-.0217.31456-.0579.10848-.1591.24949-.3038.42304-.2748.30372-.4266.55682-.4555.7593-.029.24587-.0977.47365-.2061.68337-.1085.20971-.2061.31456-.2929.31456-.0723 0-.1229-.04339-.1519-.13016-.0434-.13017-.1157-.22779-.2169-.29287-.1012-.06509-.2531-.14102-.45558-.22779-.10124-.02893-.26756-.10124-.49897-.21695-.17355-.10124-.30733-.22417-.40134-.3688-.09401-.14463-.14101-.29648-.14101-.45558-.88224.43389-1.67769 1.05579-2.38637 1.86571.17356.18801.3905.35072.65083.48812.26033.13739.5062.20609.7376.20609.21695 0 .32542-.1157.32542-.34711 0-.13016-.03978-.32541-.11932-.58574-.07955-.26033-.09763-.39773-.05424-.41219.07232-.01446.24225.03616.50982.15186.26756.1157.5315.25671.79183.42304.26034.16632.44112.33626.54236.50981.04339.08678.06508.15909.06508.21694 0 .10124-.047.1844-.14101.24949-.09401.06508-.23502.14101-.42304.22779-.26033.10124-.44834.20247-.56405.30371-.21694.20248-.4158.47366-.59659.81354-.18078.33988-.27118.64721-.27118.92204 0 .6942-.08677.9545-.26033.781-.08677-.0868-.22055-.1772-.40134-.2712-.18078-.094-.36518-.141-.5532-.141-.28926 0-.53512.1374-.7376.4122-.08678.1012-.13017.2024-.13017.3037 0 .1301.06508.2458.19525.3471.13016.1012.32541.2169.58574.3471.24587.1302.43027.2386.5532.3254.12294.0868.19887.188.22779.3037.07232.2748.22418.4122.45558.4122.07232 0 .14825-.0145.22779-.0434.07955-.0289.13378-.0578.16271-.0868.04339-.0433.20971-.065.49896-.065.44835 0 .72314.0867.82439.2603.05785.1012.19524.1808.41219.2386.15909.029.2965.0832.4122.1627.1157.0796.1952.2134.2386.4014.0434.188.1374.329.282.423.1447.094.3327.1844.5641.2712.188.0723.3326.141.4339.2061.1012.0651.1735.1482.2169.2495.0289.1157.0434.2097.0434.282 0 .2893-.0723.6002-.2169.9328-.1447.3327-.3037.5496-.4773.6509-.1591.0868-.3399.2748-.5424.564-.1735.2604-.3254.4411-.4555.5424-.1881.1301-.47731.5134-.86781 1.1498.86781.3182 1.75721.4772 2.66841.4772 1.345 0 2.6105-.3326 3.7965-.9979-.0723-.0145-.141-.1121-.2061-.2929-.0651-.1807-.1338-.4592-.2061-.8352l-.1953-.781c-.1012-.3182-.1518-.6725-.1518-1.063l.0217-.6725c0-.1591-.0145-.2748-.0434-.3471-.0289-.0868-.0579-.2387-.0868-.4556-.0289-.2169-.1121-.3905-.2495-.5207-.1374-.1301-.3652-.2097-.6834-.2386-.5785-.0289-.987-.1265-1.2257-.2929-.2386-.1663-.3579-.4881-.3579-.9654 0-.5351.1591-1.0304.4772-1.486.3182-.4556.6581-.7485 1.0197-.87863.188-.07232.3688-.10848.5423-.10848.2459 0 .4701.11571.6725.34711.1158.1157.4267.2025.9329.2603.4773.0579.7521.1302.8244.217.0868.1012.2386.4122.4556.9328.2892.7087.5062 1.1209.6508 1.2366.1157.0723.2603.1085.4339.1085h.3037c.1591 0 .2459.0434.2603.1301 0 .0723-.1229.2531-.3688.5424-.2459.3182-.4375.5857-.5749.8027-.1374.2169-.2133.4194-.2278.6074 0 .2748-.094.8172-.282 1.6271-.1157.5206-.1735.8171-.1735.8894v.0434c.3615-.3615.6797-.752.9545-1.1715.1012-.3326.188-.5351.2603-.6074.0579-.0434.1013-.0506.1302-.0217.6219-1.1136.9328-2.3285.9328-3.6446v-.1953c-.0289.0579-.0578.1013-.0867.1302-.0579.0868-.2567.2169-.5966.3905-.3399.1735-.5532.2603-.64.2603-.0579 0-.2278-.2675-.5098-.8027-.282-.5351-.4954-.9617-.64-1.2799-.0434-.0868-.0506-.17-.0217-.2495.0289-.0795.0868-.1808.1736-.3037.0867-.12296.1157-.22058.0867-.29289-.0433-.07232-.1265-.07955-.2494-.0217-.123.05785-.2278.09763-.3146.11932-.0868.02169-.1519-.00361-.1953-.07593-.0867-.15909-.1735-.26033-.2603-.30372-.0868-.04339-.1374-.01446-.1518.08678-.029.1157-.0579.19525-.0868.23863-.0289.04339-.0651.04339-.1085 0-.0868-.05785-.188-.30371-.3037-.7376-.0145-.04339-.0434-.06508-.0868-.06508s-.0759.01808-.0976.05423c-.0217.03616-.0109.07593.0325.11932.0579.04339.0868.10847.0868.19525 0 .05785-.0145.14463-.0434.26033-.0144.05785-.0506.09763-.1085.11932-.0578.02169-.1084.02169-.1518 0-.0434-.02169-.0434-.06147 0-.11932l.0434-.10847c0-.05785-.0362-.12293-.1085-.19525-.0723-.07231-.1374-.15186-.1952-.23863-.1157-.13017-.2676-.19525-.4556-.19525-.1157 0-.217.01446-.3037.04339-.029.01446-.1157.14462-.2604.39049-.1157.26033-.2241.43389-.3254.52066-.0868.08678-.1808.13017-.282.13017-.188 0-.3471-.12293-.4773-.3688-.1301-.26033.1446-.45558.8244-.58575.0434-.02892.0651-.05785.0651-.08677 0-.04339-.047-.13378-.141-.27118-.094-.1374-.1194-.21333-.076-.22779.0434-.01446.17-.09039.3797-.22779.2097-.1374.3941-.26395.5532-.37965.0578-.04339.0868-.08678.0868-.13016 0-.04339-.029-.09401-.0868-.15186-.0579-.05785-.0723-.09401-.0434-.10847h.0217c.0434 0 .1157.02531.2169.07593.1013.05062.1881.08677.2604.10847.0723.02169.1084.00361.1084-.05424 0-.07231-.0542-.15547-.1627-.24948-.1084-.09401-.2495-.14825-.423-.16271-.1591 0-.2386-.05062-.2386-.15186 0-.07231.0506-.15909.1518-.26033.1013-.10124.217-.18078.3471-.23864.1013-.04338.2242-.12293.3688-.23863.1302-.10124.2857-.19887.4665-.29287.1807-.09401.3724-.16994.5748-.22779-1.2871-.85331-2.7045-1.27996-4.252-1.27996h-.282zm1.8006 2.58161c.0289 0 .0723.02531.1301.07593.0579.05062.1013.10485.1302.16271.0289.04338.0832.10485.1627.1844.0796.07954.1374.1627.1736.24948.0361.08678.0253.15909-.0326.21694-.0868.08678-.1808.13017-.282.13017-.1446 0-.2314-.05785-.2603-.17356 0-.01446.0108-.03254.0325-.05423.0217-.0217.0615-.04701.1193-.07593.0434-.02893.0217-.14463-.0651-.34711-.0867-.20248-.1301-.31818-.1301-.34711 0-.01446.0072-.02169.0217-.02169zm-.1302.45558c.0289 0 .0434.02892.0434.08678 0 .10124-.0289.18078-.0868.23863-.0434.04339-.094.06508-.1518.06508-.0724 0-.1266-.01446-.1627-.04338-.0362-.02893-.0398-.05786-.0109-.08678l.3471-.26033h.0217zm5.3802 1.04132c-.0868.05785-.1519.13017-.1953.21694-.0434.08678-.0506.16632-.0217.23864.0145.05785.0434.1627.0868.31457.0434.15186.1013.28202.1736.39049.0723.10847.1663.16994.282.1844h.0434c.0868 0 .1301-.03615.1301-.10847 0-.02892-.0216-.10124-.065-.21694s-.0724-.20248-.0868-.26033c-.1446-.34711-.2603-.60021-.3471-.7593zm-1.6271.06508c-.1012 0-.1952.03978-.282.11932-.0868.07955-.1302.16994-.1302.27118 0 .07231.0434.14463.1302.21694.1157.08678.2495.12294.4013.10847.1519-.01446.264-.01446.3363 0h.0651c.0723 0 .1374-.02531.1952-.07593.0579-.05062.0868-.11208.0868-.1844 0-.07231-.0362-.13739-.1085-.19525-.2169-.17355-.4483-.26033-.6942-.26033zM18.75 10.7014c-.0723.1447-.0542.2459.0542.3038.1085.0578.264.1121.4665.1627.2024.0506.3254.0904.3688.1193l.0217.0217-.0434-.4122c-.2604-.2314-.4773-.3471-.6509-.3471-.1012 0-.1735.0506-.2169.1518zm-14.07955.3905c-.05785 0-.09762.047-.11931.1411-.0217.094-.04701.1265-.07593.0976v-.0217c-.02893.3471-.04339.6002-.04339.7593 0 1.374.33264 2.6394.99793 3.7965.66529 1.157 1.56921 2.0754 2.71178 2.7551.08678-.6942.18078-1.2076.28202-1.5403.01447-.0433.0217-.1084.0217-.1952 0-.188-.05424-.3869-.16271-.5966s-.26394-.4592-.46642-.7484c-.21695-.3327-.33265-.5352-.34711-.6075-.01446-.1446.03615-.4194.15186-.8244.08677-.3471.13016-.5495.13016-.6074 0-.1012-.02892-.1519-.08677-.1519-.02893 0-.07232.0145-.13017.0434-.05785.029-.10124.0434-.13016.0434-.04339 0-.15186-.1085-.32542-.3254-.21694-.2603-.33987-.405-.3688-.4339-.15909-.1591-.50619-.3182-1.04132-.4773-.33265-.1157-.51343-.188-.54236-.2169-.04339-.0434-.09762-.188-.1627-.4339-.06509-.2458-.14102-.3905-.22779-.4339-.01447-.0144-.03616-.0217-.06509-.0217z" clip-rule="evenodd"/></svg>
