<svg viewBox="0 0 24 24" fill="none" xmlns="http://www.w3.org/2000/svg"><path fill-rule="evenodd" clip-rule="evenodd" d="M12.068 3c1.649 0 3.168.405 4.556 1.215a9.014 9.014 0 0 1 3.298 3.297c.81 1.389 1.214 2.907 1.214 4.556s-.405 3.168-1.214 4.556a9.014 9.014 0 0 1-3.298 3.298c-1.388.81-2.907 1.214-4.556 1.214s-3.167-.405-4.556-1.214a9.014 9.014 0 0 1-3.297-3.298C3.405 15.236 3 13.717 3 12.068s.405-3.167 1.215-4.556a9.014 9.014 0 0 1 3.297-3.297C8.901 3.405 10.42 3 12.068 3Zm-.282 1.432a.349.349 0 0 1-.021.314 2.73 2.73 0 0 1-.304.423c-.275.304-.427.557-.456.76a1.98 1.98 0 0 1-.206.683c-.108.21-.206.315-.293.315-.072 0-.123-.044-.152-.13a.535.535 0 0 0-.217-.293 3.271 3.271 0 0 0-.455-.228 3.41 3.41 0 0 1-.5-.217 1.169 1.169 0 0 1-.4-.369.823.823 0 0 1-.142-.456C7.758 5.668 6.963 6.29 6.254 7.1c.174.188.39.35.651.488.26.138.506.206.738.206.217 0 .325-.115.325-.347 0-.13-.04-.325-.12-.585-.079-.26-.097-.398-.054-.413.073-.014.243.037.51.152.268.116.532.257.792.423.26.167.441.337.542.51a.51.51 0 0 1 .066.217c0 .101-.047.184-.142.25a2.963 2.963 0 0 1-.423.227c-.26.102-.448.203-.564.304a3.08 3.08 0 0 0-.596.814c-.181.34-.271.647-.271.922 0 .694-.087.954-.26.78a1.658 1.658 0 0 0-.402-.27 1.187 1.187 0 0 0-.553-.142c-.29 0-.535.138-.738.413a.468.468 0 0 0-.13.303c0 .13.065.246.195.347.13.102.326.217.586.348.246.13.43.238.553.325a.534.534 0 0 1 .228.304c.072.274.224.412.456.412a.667.667 0 0 0 .227-.044.463.463 0 0 0 .163-.086c.043-.044.21-.065.499-.065.448 0 .723.086.824.26.058.101.196.18.413.239.159.029.296.083.412.162.116.08.195.214.238.402a.657.657 0 0 0 .282.423c.145.094.333.184.564.27.188.073.333.142.434.207a.553.553 0 0 1 .217.25c.03.115.044.21.044.281 0 .29-.073.6-.217.933-.145.333-.304.55-.478.651-.159.087-.34.275-.542.564-.173.26-.325.441-.455.543-.189.13-.478.513-.868 1.15a7.694 7.694 0 0 0 2.668.476c1.345 0 2.61-.332 3.797-.997-.073-.015-.141-.113-.206-.293a6.033 6.033 0 0 1-.207-.836l-.195-.78a3.496 3.496 0 0 1-.152-1.063l.022-.673c0-.16-.014-.275-.043-.347a2.824 2.824 0 0 1-.087-.456.845.845 0 0 0-.25-.52c-.137-.13-.365-.21-.683-.239-.579-.029-.987-.127-1.226-.293-.238-.166-.358-.488-.358-.965 0-.535.16-1.03.478-1.486.318-.456.658-.749 1.02-.879.187-.072.368-.108.542-.108.245 0 .47.115.672.347.116.115.427.202.933.26.477.058.752.13.824.217.087.101.239.412.456.933.29.709.506 1.12.65 1.236a.805.805 0 0 0 .435.109h.303c.16 0 .246.043.26.13 0 .072-.122.253-.368.542-.246.319-.438.586-.575.803-.137.217-.213.42-.228.607 0 .275-.094.818-.282 1.628-.116.52-.173.817-.173.889v.043c.361-.361.68-.752.954-1.171.101-.333.188-.535.26-.607.058-.044.102-.051.13-.022a7.35 7.35 0 0 0 .933-3.645v-.195a.504.504 0 0 1-.086.13c-.058.087-.257.217-.597.39-.34.174-.553.26-.64.26-.058 0-.228-.267-.51-.802a25.901 25.901 0 0 1-.64-1.28.306.306 0 0 1-.021-.25c.029-.079.087-.18.173-.303.087-.123.116-.22.087-.293-.043-.072-.127-.08-.25-.021a1.784 1.784 0 0 1-.314.119c-.087.022-.152-.004-.195-.076-.087-.16-.174-.26-.26-.304-.087-.043-.138-.014-.152.087a.843.843 0 0 1-.087.239c-.03.043-.065.043-.109 0-.087-.058-.188-.304-.303-.738-.015-.043-.044-.065-.087-.065a.107.107 0 0 0-.098.054c-.021.036-.01.076.033.12.058.043.087.108.087.195 0 .058-.015.144-.044.26a.164.164 0 0 1-.108.12c-.058.021-.109.021-.152 0-.044-.022-.044-.062 0-.12l.043-.108c0-.058-.036-.123-.108-.196a1.558 1.558 0 0 1-.195-.238.58.58 0 0 0-.456-.196.96.96 0 0 0-.304.044c-.029.014-.115.144-.26.39-.116.26-.224.434-.326.521a.394.394 0 0 1-.282.13c-.188 0-.347-.123-.477-.369-.13-.26.145-.455.824-.585.044-.03.066-.058.066-.087 0-.044-.047-.134-.141-.271-.094-.138-.12-.214-.076-.228.043-.015.17-.09.38-.228.209-.137.393-.264.553-.38.057-.043.086-.086.086-.13 0-.043-.029-.094-.086-.152-.058-.057-.073-.094-.044-.108h.022c.043 0 .115.025.217.076.101.05.188.087.26.108.072.022.108.004.108-.054 0-.072-.054-.155-.162-.25a.718.718 0 0 0-.423-.162c-.16 0-.239-.05-.239-.152 0-.072.05-.159.152-.26.101-.102.217-.181.347-.239.101-.043.224-.123.369-.239a3.184 3.184 0 0 1 1.041-.52 7.534 7.534 0 0 0-4.252-1.28h-.282Zm1.8 2.581c.03 0 .073.026.13.076a.529.529 0 0 1 .131.163c.029.043.083.105.163.184a.78.78 0 0 1 .173.25c.037.087.026.159-.032.217a.394.394 0 0 1-.282.13c-.145 0-.232-.058-.26-.173 0-.015.01-.033.032-.055a.488.488 0 0 1 .12-.076c.043-.029.021-.144-.066-.347-.087-.202-.13-.318-.13-.347 0-.014.007-.022.022-.022Zm-.13.456c.03 0 .044.029.044.087 0 .101-.029.18-.087.238a.208.208 0 0 1-.152.066c-.072 0-.126-.015-.162-.044-.037-.029-.04-.058-.011-.087l.347-.26h.022Zm5.38 1.041a.56.56 0 0 0-.194.217c-.044.087-.051.167-.022.239.014.058.043.163.087.314.043.152.1.283.173.391a.39.39 0 0 0 .282.184h.044c.086 0 .13-.036.13-.108a.927.927 0 0 0-.065-.217 2.643 2.643 0 0 1-.087-.26c-.145-.347-.26-.6-.347-.76Zm-1.626.065a.41.41 0 0 0-.282.12.36.36 0 0 0-.13.27c0 .073.043.146.13.218.115.087.25.123.401.108.152-.014.264-.014.336 0h.065a.289.289 0 0 0 .196-.076.236.236 0 0 0 .086-.184c0-.072-.036-.137-.108-.195a1.092 1.092 0 0 0-.694-.26Zm1.54 2.126c-.072.145-.054.246.054.304.109.058.264.112.467.163.202.05.325.09.369.12l.021.02-.043-.411c-.26-.232-.477-.347-.651-.347-.101 0-.174.05-.217.151Zm-14.08.39c-.057 0-.097.048-.119.142-.022.094-.047.127-.076.098v-.022a7.483 7.483 0 0 0 .955 4.556 7.507 7.507 0 0 0 2.712 2.755c.086-.694.18-1.208.282-1.54a.657.657 0 0 0 .021-.196c0-.188-.054-.387-.162-.596a6.808 6.808 0 0 0-.467-.749c-.217-.332-.333-.535-.347-.607-.014-.145.036-.42.152-.825.087-.347.13-.55.13-.607 0-.101-.029-.152-.087-.152a.334.334 0 0 0-.13.043.332.332 0 0 1-.13.044c-.043 0-.152-.109-.325-.325a13.84 13.84 0 0 0-.37-.434c-.158-.16-.505-.319-1.04-.478-.333-.115-.514-.188-.543-.217-.043-.043-.098-.188-.163-.434-.065-.245-.14-.39-.227-.433-.015-.015-.037-.022-.066-.022Z" fill="currentColor"/></svg>