<svg viewBox="0 0 24 24" fill="none" xmlns="http://www.w3.org/2000/svg"><path fill-rule="evenodd" clip-rule="evenodd" d="M11.98 3c.26 0 .484.094.672.282.188.188.282.42.282.694 1.779.073 3.457.34 5.033.803.188.058.372.173.553.347.18.174.308.362.38.564l2.863 8.092c.116.304.174.658.174 1.063 0 .145-.007.253-.022.325a3.235 3.235 0 0 1-1.15 1.877 3.219 3.219 0 0 1-2.104.748c-.795 0-1.5-.249-2.115-.748a3.215 3.215 0 0 1-1.16-1.877 1.442 1.442 0 0 1-.022-.303c0-.39.065-.752.195-1.085l2.56-7.246a.715.715 0 0 0 .043-.217.41.41 0 0 0-.152-.325.547.547 0 0 0-.369-.13h-4.707v12.43c1.793.073 3.478.34 5.055.803.188.058.347.152.477.282.13.13.195.253.195.369v.434H5.298v-.434c0-.116.065-.239.195-.369s.289-.224.477-.282c1.577-.463 3.261-.73 5.055-.803V5.864H6.317a.547.547 0 0 0-.369.13.411.411 0 0 0-.152.325c0 .058.015.13.044.217l2.56 7.246c.115.304.173.658.173 1.063 0 .145-.007.253-.021.325a3.234 3.234 0 0 1-1.15 1.877 3.219 3.219 0 0 1-2.104.748 3.263 3.263 0 0 1-2.116-.748 3.215 3.215 0 0 1-1.16-1.877A1.438 1.438 0 0 1 2 14.867c0-.39.065-.752.195-1.085L5.06 5.69a1.52 1.52 0 0 1 .369-.564 1.31 1.31 0 0 1 .542-.347c1.548-.463 3.232-.738 5.055-.824a.92.92 0 0 1 .282-.673.918.918 0 0 1 .671-.282ZM5.297 7.86l-2.343 6.594h4.664L5.298 7.86Zm13.363 0-2.343 6.594h4.664l-2.32-6.595Z" fill="currentColor"/></svg>