<svg viewBox="0 0 24 24" fill="none" xmlns="http://www.w3.org/2000/svg"><path fill-rule="evenodd" clip-rule="evenodd" d="M12.16 17.364c-.16 0-.305-.08-.435-.239l-4.382-5.554c-.087-.115-.13-.21-.13-.282 0-.188.137-.282.412-.282h3.102V4h2.864v7.007h3.102c.275 0 .412.094.412.282 0 .073-.043.167-.13.282l-4.382 5.554a.52.52 0 0 1-.434.239Zm6.68.477a.46.46 0 0 1 .337.14.46.46 0 0 1 .141.337v.955a.46.46 0 0 1-.14.336.46.46 0 0 1-.337.141H5.477a.46.46 0 0 1-.336-.141.46.46 0 0 1-.141-.336v-.955a.46.46 0 0 1 .141-.336.46.46 0 0 1 .336-.141h13.364Z" fill="currentColor"/></svg>