<?xml version="1.0" encoding="UTF-8"?>
<svg width="24px" height="24px" viewBox="0 0 24 24" version="1.1" xmlns="http://www.w3.org/2000/svg" xmlns:xlink="http://www.w3.org/1999/xlink">
    <g id="icon/UI-library/download" stroke="none" stroke-width="1" fill="none" fill-rule="evenodd">
        <path d="M12.1590909,17.3636364 C11.9999992,17.3636364 11.8553726,17.2840917 11.7252066,17.125 L7.34297521,11.571281 C7.25619791,11.4555779 7.21280992,11.3615706 7.21280992,11.2892562 C7.21280992,11.1012387 7.35020524,11.0072314 7.625,11.0072314 L10.7272727,11.0072314 L10.7272727,4 L13.5909091,4 L13.5909091,11.0072314 L16.6931818,11.0072314 C16.9679766,11.0072314 17.1053719,11.1012387 17.1053719,11.2892562 C17.1053719,11.3615706 17.0619839,11.4555779 16.9752066,11.571281 L12.5929752,17.125 C12.4772721,17.2840917 12.3326455,17.3636364 12.1590909,17.3636364 Z M18.8409091,17.8409091 C18.971075,17.8409091 19.0831607,17.8879128 19.1771694,17.9819215 C19.2711782,18.0759302 19.3181818,18.1880159 19.3181818,18.3181818 L19.3181818,19.2727273 C19.3181818,19.4028932 19.2711782,19.5149789 19.1771694,19.6089876 C19.0831607,19.7029963 18.971075,19.75 18.8409091,19.75 L5.47727273,19.75 C5.34710679,19.75 5.23502113,19.7029963 5.1410124,19.6089876 C5.04700366,19.5149789 5,19.4028932 5,19.2727273 L5,18.3181818 C5,18.1880159 5.04700366,18.0759302 5.1410124,17.9819215 C5.23502113,17.8879128 5.34710679,17.8409091 5.47727273,17.8409091 L18.8409091,17.8409091 Z" id="Icon" fill="currentColor"></path>
    </g>
</svg>
