<svg viewBox="0 0 24 24" fill="none" xmlns="http://www.w3.org/2000/svg"><path fill-rule="evenodd" clip-rule="evenodd" d="M6.867 4.454c0-.073.036-.145.108-.217.955-.608 1.946-1.013 2.973-1.215L10.013 3c.086 0 .159.065.217.195l.26 1.41v.044a.23.23 0 0 1-.054.152.26.26 0 0 1-.141.086 7.493 7.493 0 0 0-2.257.933.333.333 0 0 1-.13.044.213.213 0 0 1-.195-.109L6.91 4.584a.333.333 0 0 1-.043-.13Zm6.573.433a.203.203 0 0 1-.151-.108.245.245 0 0 1-.022-.174l.26-1.41a.203.203 0 0 1 .109-.152.245.245 0 0 1 .173-.021c.998.202 1.989.607 2.972 1.215a.23.23 0 0 1 .098.162.324.324 0 0 1-.033.185l-.802 1.171a.23.23 0 0 1-.163.098.324.324 0 0 1-.184-.033c-.651-.42-1.403-.73-2.257-.933Zm-7.68 2.82a.23.23 0 0 1 .098.163.324.324 0 0 1-.032.185 6.974 6.974 0 0 0-.933 2.256c-.044.145-.138.202-.282.174l-1.41-.26a.29.29 0 0 1-.152-.098c-.044-.051-.058-.113-.044-.185.246-1.113.658-2.104 1.237-2.972a.17.17 0 0 1 .141-.098.324.324 0 0 1 .184.033l1.194.803Zm12.171.348a.333.333 0 0 1-.043-.13c0-.073.036-.145.108-.217l1.172-.803a.333.333 0 0 1 .13-.043c.101 0 .173.036.217.108a8.96 8.96 0 0 1 1.215 2.972l.021.065c0 .116-.065.188-.195.217l-1.41.26h-.044a.267.267 0 0 1-.151-.043.21.21 0 0 1-.087-.13c-.203-.853-.514-1.605-.933-2.256ZM5.826 15.713a.333.333 0 0 1 .043.13c0 .058-.036.123-.108.195l-1.194.803a.334.334 0 0 1-.13.043.213.213 0 0 1-.195-.108 8.917 8.917 0 0 1-1.237-2.972v-.044a.23.23 0 0 1 .055-.152.26.26 0 0 1 .14-.086l1.41-.26h.044c.101 0 .181.064.239.195.173.78.484 1.533.933 2.256Zm14.73-2.191c.072.014.123.05.152.108a.245.245 0 0 1 .022.174c-.203 1.027-.608 2.017-1.215 2.972a.23.23 0 0 1-.163.098.325.325 0 0 1-.184-.033l-1.172-.803a.273.273 0 0 1-.108-.152c-.015-.057 0-.115.043-.173.42-.665.73-1.417.933-2.256a.291.291 0 0 1 .098-.152c.05-.044.112-.058.184-.044l1.41.26Zm-10.261 5.336a.29.29 0 0 1 .152.098c.043.05.057.112.043.184l-.26 1.41c-.058.16-.152.225-.282.196a9.336 9.336 0 0 1-2.973-1.237.197.197 0 0 1-.108-.14.217.217 0 0 1 .043-.185l.803-1.193a.17.17 0 0 1 .141-.098.324.324 0 0 1 .184.033 7.28 7.28 0 0 0 2.257.933Zm6.595.456a.213.213 0 0 1-.109.195 9.916 9.916 0 0 1-2.972 1.237h-.043a.23.23 0 0 1-.152-.054.26.26 0 0 1-.087-.141l-.26-1.41-.022-.066c0-.115.065-.188.195-.216a6.973 6.973 0 0 0 2.257-.933.334.334 0 0 1 .13-.044c.1 0 .173.036.217.109l.802 1.193a.331.331 0 0 1 .044.13Z" fill="currentColor"/></svg>