<svg xmlns="http://www.w3.org/2000/svg" fill="none" viewBox="0 0 24 24"><path fill="currentColor" fill-rule="evenodd" d="M14.9458 3c.3905 0 .875.16632 1.4535.49897.5785.33264 1.157.78822 1.7355 1.36673.5785.57852 1.0377 1.15702 1.3776 1.73554.3399.57852.5098 1.06301.5098 1.45351 0 .21695-.0651.3905-.1952.52066L9.60899 18.7934c-.08678.0868-.20971.1735-.3688.2603-.1591.0868-.30372.1374-.43389.1519l-4.98967.781c-.26033.0434-.47004-.0109-.62913-.1627-.15909-.1519-.21694-.358-.17355-.6183l.78099-5.0114c.01446-.1302.06508-.2712.15186-.423.08677-.1519.17355-.2784.26033-.3797L14.4251 3.17355c.1157-.1157.2893-.17355.5207-.17355zM4.72779 14.4112l-.28203 1.909 2.2562 2.2562 1.8874-.3037c.15909-.0289.29649-.1012.41219-.2169l8.80785-8.80787-4.0568-4.03512-8.80787 8.80789c-.1157.1157-.18801.2458-.21694.3905z" clip-rule="evenodd"/></svg>
