<svg viewBox="0 0 24 24" fill="none" xmlns="http://www.w3.org/2000/svg"><path fill-rule="evenodd" clip-rule="evenodd" d="M14.946 3c.39 0 .875.166 1.453.499.579.333 1.157.788 1.736 1.367.578.578 1.037 1.157 1.377 1.735.34.579.51 1.063.51 1.454 0 .217-.065.39-.195.52L9.609 18.793a1.6 1.6 0 0 1-.369.26 1.214 1.214 0 0 1-.434.153l-4.99.78c-.26.044-.47-.01-.628-.162-.16-.152-.217-.358-.174-.618l.78-5.012c.015-.13.066-.271.153-.423.087-.152.173-.278.26-.38L14.425 3.175c.116-.116.29-.174.52-.174ZM4.728 14.411l-.282 1.91 2.256 2.255 1.887-.303a.764.764 0 0 0 .413-.217l8.807-8.808-4.056-4.035-8.808 8.808a.756.756 0 0 0-.217.39Z" fill="currentColor"/></svg>