<svg viewBox="0 0 24 24" fill="none" xmlns="http://www.w3.org/2000/svg"><path fill-rule="evenodd" clip-rule="evenodd" d="M19.446 11.224H4.911a.875.875 0 0 1-.64-.271.875.875 0 0 1-.271-.64V4.911c0-.246.09-.459.271-.64A.875.875 0 0 1 4.911 4h14.535c.246 0 .46.09.64.271a.874.874 0 0 1 .271.64v5.402c0 .246-.09.46-.27.64a.875.875 0 0 1-.64.271Zm-11.823-1.8c.492 0 .915-.181 1.269-.543.354-.361.532-.788.532-1.28s-.178-.915-.532-1.269a1.732 1.732 0 0 0-1.27-.531c-.49 0-.917.177-1.279.531a1.715 1.715 0 0 0-.542 1.27c0 .491.18.918.542 1.28a1.75 1.75 0 0 0 1.28.542Zm11.823 10.933H4.911a.876.876 0 0 1-.64-.27.875.875 0 0 1-.271-.64v-5.424a.84.84 0 0 1 .271-.63.893.893 0 0 1 .64-.26h14.535c.246 0 .46.087.64.26a.84.84 0 0 1 .271.63v5.423c0 .246-.09.46-.27.64a.876.876 0 0 1-.64.271ZM7.623 18.535c.492 0 .915-.177 1.269-.531.354-.355.532-.778.532-1.27 0-.491-.178-.914-.532-1.269a1.732 1.732 0 0 0-1.27-.531c-.505 0-.936.177-1.29.531a1.732 1.732 0 0 0-.531 1.27c0 .491.177.914.531 1.269.354.354.785.531 1.29.531Z" fill="currentColor"/></svg>