<svg width="24" height="24" viewBox="0 0 24 24" fill="none" xmlns="http://www.w3.org/2000/svg">
<path fill-rule="evenodd" clip-rule="evenodd" d="M5.12603 13.5258C5.12603 13.5692 4.93079 13.3559 4.54029 12.8858C4.14979 12.4158 3.79546 11.8662 3.47727 11.2371C3.15909 10.608 3 9.95352 3 9.27376C3 7.78408 3.39772 6.69938 4.19318 6.01963C4.98864 5.33987 5.9938 5 7.20868 5C7.85951 5 8.5031 5.19163 9.13946 5.5749C9.77583 5.95816 10.329 6.3812 10.7991 6.84401C11.2691 7.30682 11.5041 7.55992 11.5041 7.60331C11.5041 7.55992 11.7392 7.30682 12.2092 6.84401C12.6792 6.3812 13.2324 5.95816 13.8688 5.5749C14.5052 5.19163 15.1415 5 15.7779 5C16.9928 5 18.0015 5.33987 18.8042 6.01963C19.6069 6.69938 20.0083 7.78408 20.0083 9.27376C20.0083 9.95352 19.8492 10.608 19.531 11.2371C19.2128 11.8662 18.8585 12.4158 18.468 12.8858C18.0775 13.3559 17.8822 13.5692 17.8822 13.5258L11.5041 19.8822L5.12603 13.5258Z" fill="currentColor"/>
</svg>
