<svg viewBox="0 0 24 24" fill="none" xmlns="http://www.w3.org/2000/svg"><path fill-rule="evenodd" clip-rule="evenodd" d="M5.126 13.526c0 .043-.195-.17-.586-.64a8.743 8.743 0 0 1-1.063-1.649A4.297 4.297 0 0 1 3 9.274c0-1.49.398-2.575 1.193-3.254C4.99 5.34 5.993 5 7.21 5c.65 0 1.294.192 1.93.575.637.383 1.19.806 1.66 1.269.47.463.705.716.705.76 0-.044.235-.297.705-.76a8.88 8.88 0 0 1 1.66-1.27C14.505 5.193 15.142 5 15.778 5c1.215 0 2.223.34 3.026 1.02.803.68 1.204 1.764 1.204 3.254 0 .68-.159 1.334-.477 1.963a8.744 8.744 0 0 1-1.063 1.649c-.39.47-.586.683-.586.64l-6.378 6.356-6.378-6.356Z" fill="currentColor"/></svg>