<svg viewBox="0 0 24 24" fill="none" xmlns="http://www.w3.org/2000/svg"><path fill-rule="evenodd" clip-rule="evenodd" d="M8.489 4a5.424 5.424 0 0 1 3.883 1.605l7.094 7.094c.39.376.683.814.878 1.313a4.219 4.219 0 0 1 0 3.091 3.887 3.887 0 0 1-.878 1.324 4.007 4.007 0 0 1-2.864 1.193 4.367 4.367 0 0 1-1.562-.326 3.8 3.8 0 0 1-1.301-.889l-6.075-6.074c-.506-.535-.759-1.15-.759-1.844 0-.348.065-.68.195-.998.13-.319.318-.6.564-.846a2.51 2.51 0 0 1 1.844-.76c.738 0 1.353.253 1.844.76l3.211 3.21c.145.13.217.297.217.5a.71.71 0 0 1-.217.52.676.676 0 0 1-.499.195.751.751 0 0 1-.52-.195l-3.19-3.21a1.151 1.151 0 0 0-.846-.348c-.318 0-.593.116-.824.347a1.081 1.081 0 0 0-.347.825c0 .332.115.614.347.846l6.074 6.074c.492.492 1.107.752 1.844.781.695 0 1.31-.253 1.844-.76.506-.506.76-1.127.76-1.865s-.253-1.36-.76-1.866l-7.094-7.072a3.774 3.774 0 0 0-1.312-.89 4.088 4.088 0 0 0-3.092 0 4.027 4.027 0 0 0-1.323.89c-.39.39-.687.835-.89 1.334a4.034 4.034 0 0 0-.303 1.53c0 .52.101 1.026.304 1.518.202.492.498.94.889 1.345l5.9 5.901a.71.71 0 0 1 .218.52.641.641 0 0 1-.217.5.641.641 0 0 1-.5.217.71.71 0 0 1-.52-.217l-5.9-5.901A5.424 5.424 0 0 1 3 9.489a5.424 5.424 0 0 1 1.605-3.883A5.424 5.424 0 0 1 8.49 4Z" fill="currentColor"/></svg>