<svg viewBox="0 0 24 24" fill="none" xmlns="http://www.w3.org/2000/svg"><path fill-rule="evenodd" clip-rule="evenodd" d="M11.135 3.412c.188-.26.427-.398.716-.412.29.014.528.152.716.412.043.058.116.21.217.456l1.432 5.185c0 .072.05.144.152.217a.373.373 0 0 0 .238.086h4.99c.145 0 .29.022.434.065.202.058.369.16.499.304a.61.61 0 0 1 .174.52c0 .189-.073.391-.218.608-.043.058-.159.16-.347.304l-3.991 2.625c-.03.014-.069.065-.12.152-.05.087-.068.159-.054.217v.087l1.757 5.141c.058.16.087.325.087.5 0 .216-.05.397-.152.541a.827.827 0 0 1-.293.25.802.802 0 0 1-.38.098 1.455 1.455 0 0 1-.379-.076.93.93 0 0 1-.25-.141 1.095 1.095 0 0 0-.151-.109L12.09 17.08c-.043-.043-.116-.064-.217-.064-.101 0-.166.021-.195.064L7.75 20.42c-.13.102-.246.178-.347.228-.101.05-.246.083-.434.098a.689.689 0 0 1-.38-.076.635.635 0 0 1-.292-.25.933.933 0 0 1-.174-.564c0-.1.029-.253.087-.455l1.562-5.12v-.13a.448.448 0 0 0-.065-.206c-.044-.08-.08-.127-.109-.141l-4.013-2.647a1.859 1.859 0 0 1-.347-.304.923.923 0 0 1-.239-.607c0-.203.058-.376.174-.52.13-.131.245-.218.347-.261.188-.072.383-.109.585-.109h4.99a.373.373 0 0 0 .239-.086c.1-.073.152-.145.152-.217l1.453-5.185a1.53 1.53 0 0 1 .195-.456Z" fill="currentColor"/></svg>