<svg viewBox="0 0 24 24" fill="none" xmlns="http://www.w3.org/2000/svg"><path fill-rule="evenodd" clip-rule="evenodd" d="M12.962 18.41a.272.272 0 0 1-.239-.131.663.663 0 0 1-.087-.369v-2.907l.933-.76a2.86 2.86 0 0 0 .716-.921c.174-.354.26-.727.26-1.117 0-.391-.086-.763-.26-1.118a2.86 2.86 0 0 0-.716-.922l-.933-.759V6.499c0-.16.03-.282.087-.369a.272.272 0 0 1 .239-.13.53.53 0 0 1 .347.152l6.682 5.488a.68.68 0 0 1 .282.564c0 .203-.094.391-.282.565l-6.682 5.488a.53.53 0 0 1-.347.152Zm-7.637 0a.272.272 0 0 1-.238-.131A.662.662 0 0 1 5 17.91V6.5a.66.66 0 0 1 .087-.369A.272.272 0 0 1 5.325 6a.53.53 0 0 1 .348.152l6.681 5.488a.679.679 0 0 1 .282.564c0 .203-.094.391-.282.565l-6.681 5.488a.53.53 0 0 1-.348.152Z" fill="currentColor"/></svg>