<svg viewBox="0 0 24 24" fill="none" xmlns="http://www.w3.org/2000/svg"><path fill-rule="evenodd" clip-rule="evenodd" d="M11.682 2c.26 0 .484.094.672.282a.918.918 0 0 1 .282.673v8.59h.955V3.91c0-.26.094-.484.282-.672a.918.918 0 0 1 .673-.282c.26 0 .484.094.672.282a.918.918 0 0 1 .282.672v9.546h.954v-5.25a.92.92 0 0 1 .283-.673.918.918 0 0 1 .672-.282h.955l-.022 8.114a6.408 6.408 0 0 1-1.03 3.134 6.705 6.705 0 0 1-2.409 2.246c-.99.55-2.064.824-3.221.824a6.49 6.49 0 0 1-3.352-.9 6.746 6.746 0 0 1-2.43-2.43 6.49 6.49 0 0 1-.9-3.352V5.818c0-.26.094-.484.282-.672a.918.918 0 0 1 .673-.282c.26 0 .484.094.672.282a.918.918 0 0 1 .282.672v5.728h.955V3.909c0-.26.094-.484.282-.672a.918.918 0 0 1 .672-.282.92.92 0 0 1 .673.282.918.918 0 0 1 .282.672v7.637h.954V2.955a.92.92 0 0 1 .282-.673.918.918 0 0 1 .673-.282Z" fill="currentColor"/></svg>