<svg xmlns="http://www.w3.org/2000/svg" fill="none" viewBox="0 0 24 24"><path fill="currentColor" fill-rule="evenodd" d="M10.358 5c.188 0 .402.05.64.152.24.101.43.224.575.369l7.94 7.918c.29.29.434.63.434 1.02s-.144.73-.434 1.02l-4.056 4.034c-.29.29-.622.434-.998.434-.39 0-.73-.144-1.02-.434l-7.94-7.918a1.66 1.66 0 0 1-.358-.575A1.816 1.816 0 0 1 5 10.358V5.716c0-.203.072-.373.217-.51A.703.703 0 0 1 5.716 5h4.643zm-1.54 2.278a1.065 1.065 0 0 0-.78-.326c-.305 0-.565.109-.782.326a1.03 1.03 0 0 0-.304.76c0 .288.102.549.304.78.217.217.477.326.781.326.304 0 .564-.109.781-.326.203-.202.304-.463.304-.78 0-.319-.101-.572-.304-.76z" clip-rule="evenodd"/></svg>