<svg xmlns="http://www.w3.org/2000/svg" fill="none" viewBox="0 0 24 24"><path fill="currentColor" fill-rule="evenodd" d="M10.3585 5c.188 0 .4013.05062.64.15186.2386.10124.4302.22417.5748.3688l7.9401 7.91834c.2893.2893.4339.6292.4339 1.0197 0 .3905-.1446.7303-.4339 1.0196l-4.0568 4.0351c-.2892.2893-.6219.4339-.9979.4339-.3905 0-.7304-.1446-1.0197-.4339L5.49897 11.595c-.14463-.1446-.26395-.3362-.35796-.5749C5.047 10.7815 5 10.561 5 10.3585V5.71591c0-.20248.07231-.37242.21694-.50981C5.36157 5.0687 5.52789 5 5.71591 5h4.64259zM8.81818 7.27789c-.21694-.21694-.47727-.32541-.78099-.32541-.30372 0-.56405.10847-.78099.32541-.20248.20248-.30372.45558-.30372.7593 0 .28926.10124.54959.30372.78099.21694.21695.47727.32541.78099.32541.30372 0 .56405-.10846.78099-.32541.20248-.20248.30372-.46281.30372-.78099 0-.31818-.10124-.57128-.30372-.7593z" clip-rule="evenodd"/></svg>
