<svg viewBox="0 0 24 24" xmlns="http://www.w3.org/2000/svg"><path d="M12 4c-4.4 0-8 3.581-8 8 0 4.419 3.6 8 8 8a8 8 0 0 0 8-8 8 8 0 0 0-8-8m1.029 2.476a.97.97 0 0 1 .742.324c.172.19.248.438.248.705 0 .685-.552 1.314-1.295 1.314-.61 0-.972-.438-.972-1.067 0-.552.438-1.257 1.277-1.276m.361 4.953-.876 3.58a2.026 2.026 0 0 0-.057.381v.096c.095-.02.724-.438 1.124-.82l.095-.076.343.724.038.076-.057.058c-1.124 1.219-2.495 1.962-3.029 1.962-.171 0-.361-.039-.495-.191-.133-.152-.19-.362-.19-.686 0-.247.038-.762.114-1.143l.819-3.466a2.41 2.41 0 0 0 .057-.4c-.133.057-.762.495-1.047.743l-.115.076-.304-.857.057-.057c1.123-1.048 2.476-1.886 3.104-1.886a.5.5 0 0 1 .42.228c.076.153.114.343.114.572a5.8 5.8 0 0 1-.115 1.086" fill="currentColor" fill-rule="evenodd"/></svg>