<svg xmlns="http://www.w3.org/2000/svg" fill="none" viewBox="0 0 24 24"><path fill="currentColor" fill-rule="evenodd" d="M20.33 4c.202 0 .372.069.51.206a.692.692 0 0 1 .205.51V19.51a.693.693 0 0 1-.206.51.693.693 0 0 1-.51.206H4.58a.703.703 0 0 1-.498-.206.675.675 0 0 1-.217-.51v-4.534L1 12.114 3.864 9.25V4.716c0-.203.072-.373.217-.51A.703.703 0 0 1 4.58 4h15.75zM8.16 9.25V7.34H6.25v1.91h1.91zm10.5 0V7.34H9.59v1.91h9.07zm-10.5 3.818V11.16H6.25v1.91h1.91zm10.5 0V11.16H9.59v1.91h9.07zm-10.5 3.818v-1.909H6.25v1.91h1.91zm10.5 0v-1.909H9.59v1.91h9.07z" clip-rule="evenodd"/></svg>