<svg xmlns="http://www.w3.org/2000/svg" fill="none" viewBox="0 0 24 24"><path fill="currentColor" fill-rule="evenodd" d="M20.3295 4c.2025 0 .3725.0687.5099.2061.1374.13739.2061.30733.2061.50981V19.5114c0 .2024-.0687.3724-.2061.5098-.1374.1374-.3074.2061-.5099.2061H4.57955c-.18802 0-.35434-.0687-.49897-.2061-.14463-.1374-.21694-.3074-.21694-.5098v-4.5341L1 12.1136 3.86364 9.25V4.71591c0-.20248.07231-.37242.21694-.50981C4.22521 4.0687 4.39153 4 4.57955 4H20.3295zM8.15909 9.25V7.34091H6.25V9.25h1.90909zm10.50001 0V7.34091H9.59091V9.25h9.06819zM8.15909 13.0682v-1.9091H6.25v1.9091h1.90909zm10.50001 0v-1.9091H9.59091v1.9091h9.06819zM8.15909 16.8864v-1.9091H6.25v1.9091h1.90909zm10.50001 0v-1.9091H9.59091v1.9091h9.06819z" clip-rule="evenodd"/></svg>
