<svg viewBox="0 0 24 24" fill="none" xmlns="http://www.w3.org/2000/svg"><path fill-rule="evenodd" clip-rule="evenodd" d="M2.668 3.442 20.42 21.196l-1.348 1.359-5.129-5.128-2.771 2.77a5.313 5.313 0 0 1-7.507 0 5.313 5.313 0 0 1 0-7.506l1.582-1.582c-.01.87.127 1.741.425 2.58l-.5.499a3.166 3.166 0 0 0 0 4.502 3.166 3.166 0 0 0 4.503 0l2.782-2.76-1.72-1.71c-.011.255-.117.52-.308.722a1.07 1.07 0 0 1-1.508 0 5.28 5.28 0 0 1-1.54-4.067L1.31 4.791l1.359-1.349Zm17.52.234a5.313 5.313 0 0 1 0 7.507l-1.582 1.582a7.335 7.335 0 0 0-.425-2.57l.499-.51a3.166 3.166 0 0 0 0-4.501 3.166 3.166 0 0 0-4.502 0L10.642 8.72 9.145 7.212l3.536-3.536a5.313 5.313 0 0 1 7.507 0Zm-6.764 5.256a1.07 1.07 0 0 1 1.508 0 5.307 5.307 0 0 1 1.306 5.373l-1.89-1.88a3.094 3.094 0 0 0-.924-1.985 1.034 1.034 0 0 1 0-1.508Z" fill="currentColor"/></svg>