<svg viewBox="0 0 24 24" fill="none" xmlns="http://www.w3.org/2000/svg"><path fill-rule="evenodd" clip-rule="evenodd" d="M6 8.662a5.54 5.54 0 0 1 .76-2.842 5.609 5.609 0 0 1 2.07-2.06A5.598 5.598 0 0 1 11.684 3a5.54 5.54 0 0 1 2.842.76 5.633 5.633 0 0 1 2.06 2.06 5.54 5.54 0 0 1 .76 2.842c0 .839-.166 1.613-.499 2.321l-4.23 9.416c-.13.275-.275.48-.434.618a.756.756 0 0 1-.5.206c-.375 0-.693-.275-.954-.824L6.5 10.983a5.394 5.394 0 0 1-.5-2.32Zm5.684-2.755a2.83 2.83 0 0 0-1.475.401 2.967 2.967 0 0 0-1.063 1.074 2.85 2.85 0 0 0-.39 1.454c0 .52.13 1.005.39 1.453.26.449.614.807 1.063 1.074.448.268.94.402 1.475.402.52 0 1.005-.134 1.453-.402a3.055 3.055 0 0 0 1.074-1.074c.268-.448.402-.933.402-1.453s-.134-1.005-.402-1.454a3.056 3.056 0 0 0-1.074-1.074 2.787 2.787 0 0 0-1.453-.401Z" fill="currentColor"/></svg>