<svg viewBox="0 0 24 24" fill="none" xmlns="http://www.w3.org/2000/svg"><path fill-rule="evenodd" clip-rule="evenodd" d="M10.725 4.316c0-.356.127-.665.38-.925.254-.26.56-.391.916-.391s.664.13.925.39c.26.261.39.57.39.926v8.37c0 .357-.13.665-.39.926-.26.26-.569.39-.925.39-.357 0-.662-.13-.916-.39a1.282 1.282 0 0 1-.38-.926v-8.37ZM7.578 6.352c.398 0 .72.151.967.453.22.233.329.52.329.863 0 .398-.15.72-.452.967a5.525 5.525 0 0 0-1.327 1.81 5.247 5.247 0 0 0-.483 2.22c0 .974.24 1.876.72 2.705a5.371 5.371 0 0 0 1.964 1.975 5.25 5.25 0 0 0 2.704.73 5.25 5.25 0 0 0 2.704-.73 5.452 5.452 0 0 0 1.975-1.975c.486-.83.73-1.73.73-2.704 0-.782-.161-1.519-.483-2.211a5.556 5.556 0 0 0-1.327-1.8 1.315 1.315 0 0 1-.432-.987c0-.342.11-.63.33-.863a1.21 1.21 0 0 1 .966-.432c.342 0 .63.11.863.329a7.898 7.898 0 0 1 1.965 2.663 7.849 7.849 0 0 1 .709 3.3c0 1.454-.36 2.794-1.08 4.021a8.085 8.085 0 0 1-2.91 2.92 7.75 7.75 0 0 1-4.01 1.08 7.75 7.75 0 0 1-4.01-1.08 8.084 8.084 0 0 1-2.91-2.92A7.805 7.805 0 0 1 4 12.666c0-1.166.24-2.27.72-3.311A7.99 7.99 0 0 1 6.694 6.68c.233-.22.528-.329.884-.329Z" fill="currentColor"/></svg>