<svg xmlns="http://www.w3.org/2000/svg" width="24" height="24"><path d="M20.355 4a.84.84 0 01.619.25.84.84 0 01.25.618v1.15a.85.85 0 01-.25.607.822.822 0 01-.619.26H3.868a.833.833 0 01-.608-.26.833.833 0 01-.26-.607v-1.15c0-.246.087-.452.26-.619A.85.85 0 013.868 4h16.487zm0 6.14a.84.84 0 01.619.249.84.84 0 01.25.618v1.15a.85.85 0 01-.25.607.822.822 0 01-.619.26H3.868a.833.833 0 01-.608-.26.833.833 0 01-.26-.607v-1.15c0-.246.087-.452.26-.618a.85.85 0 01.608-.25h16.487zm0 6.16a.84.84 0 01.619.25.84.84 0 01.25.618v1.15a.84.84 0 01-.25.618.84.84 0 01-.619.25H3.868a.85.85 0 01-.608-.25.822.822 0 01-.26-.618v-1.15c0-.245.087-.452.26-.618a.85.85 0 01.608-.25h16.487z" fill="currentColor" fill-rule="evenodd"/></svg>
