<svg viewBox="0 0 24 24" fill="none" xmlns="http://www.w3.org/2000/svg"><path fill-rule="evenodd" clip-rule="evenodd" d="M20.355 4a.84.84 0 0 1 .619.25.84.84 0 0 1 .25.618v1.15a.85.85 0 0 1-.25.607.822.822 0 0 1-.619.26H3.868a.833.833 0 0 1-.608-.26.833.833 0 0 1-.26-.607v-1.15c0-.246.087-.452.26-.619A.85.85 0 0 1 3.868 4h16.487Zm0 6.14a.84.84 0 0 1 .619.249.84.84 0 0 1 .25.618v1.15a.85.85 0 0 1-.25.607.822.822 0 0 1-.619.26H3.868a.833.833 0 0 1-.608-.26.833.833 0 0 1-.26-.607v-1.15c0-.246.087-.452.26-.618a.85.85 0 0 1 .608-.25h16.487Zm0 6.16a.84.84 0 0 1 .619.25.84.84 0 0 1 .25.618v1.15a.84.84 0 0 1-.25.618.84.84 0 0 1-.619.25H3.868a.85.85 0 0 1-.608-.25.822.822 0 0 1-.26-.618v-1.15c0-.245.087-.452.26-.618a.85.85 0 0 1 .608-.25h16.487Z" fill="currentColor"/></svg>