<svg viewBox="0 0 24 24" fill="none" xmlns="http://www.w3.org/2000/svg"><path fill-rule="evenodd" clip-rule="evenodd" d="M9.447 4.627a7.6 7.6 0 0 1 .814 1.182c.239.427.51.959.813 1.595.275.593.492 1.041.651 1.345.16.304.34.571.543.803.188.217.386.372.596.466.21.094.452.141.727.141h2.083V8.011c0-.246.072-.368.216-.368.087 0 .188.057.304.173l3.276 3.276a.64.64 0 0 1 .217.499.71.71 0 0 1-.217.52l-3.276 3.276c-.116.116-.217.174-.303.174-.145 0-.217-.13-.217-.39v-2.148H13.59c-.275 0-.513.05-.716.152a2.19 2.19 0 0 0-.607.477c-.203.231-.38.492-.532.78-.152.29-.372.739-.662 1.346a20.57 20.57 0 0 1-.802 1.605 7.875 7.875 0 0 1-.825 1.193c-.94 1.07-2.104 1.606-3.492 1.606h-.478a.48.48 0 0 1-.336-.13.45.45 0 0 1-.141-.348v-1.909a.46.46 0 0 1 .141-.336.46.46 0 0 1 .336-.14h.478c.274 0 .517-.048.726-.142.21-.094.409-.25.597-.466.202-.232.383-.5.542-.803.16-.304.376-.752.651-1.345.304-.636.575-1.168.814-1.595.238-.426.51-.82.813-1.182l.174-.195-.174-.174a7.923 7.923 0 0 1-.824-1.193A20.622 20.622 0 0 1 8.47 8.62a42.32 42.32 0 0 0-.662-1.345 4.011 4.011 0 0 0-.531-.781 2.193 2.193 0 0 0-.608-.478 1.583 1.583 0 0 0-.715-.151h-.478a.479.479 0 0 1-.336-.13.45.45 0 0 1-.14-.35V3.477a.46.46 0 0 1 .141-.336A.46.46 0 0 1 5.477 3h.478c1.388 0 2.552.542 3.492 1.627Z" fill="currentColor"/></svg>