<svg viewBox="0 0 24 24" fill="none" xmlns="http://www.w3.org/2000/svg"><path fill-rule="evenodd" clip-rule="evenodd" d="M13.912 3c.174 0 .326.065.456.195s.195.282.195.456v3.558a.614.614 0 0 1-.195.466.643.643 0 0 1-.456.184h-3.58a.643.643 0 0 1-.455-.184.614.614 0 0 1-.195-.466V3.65c0-.174.065-.326.195-.456A.624.624 0 0 1 10.333 3h3.58ZM7.21 9.682c.188 0 .343.065.466.195s.184.282.184.456v3.557a.632.632 0 0 1-.65.651H3.65a.642.642 0 0 1-.456-.184A.614.614 0 0 1 3 13.89v-3.558c0-.174.065-.326.195-.456a.624.624 0 0 1 .456-.195h3.558Zm13.363 0c.188 0 .344.065.467.195.123.13.184.282.184.456v3.557a.632.632 0 0 1-.65.651h-3.558a.642.642 0 0 1-.456-.184.614.614 0 0 1-.195-.466v-3.558c0-.174.065-.326.195-.456a.624.624 0 0 1 .456-.195h3.557Zm-6.681.022a.632.632 0 0 1 .65.65v3.558a.643.643 0 0 1-.184.456.614.614 0 0 1-.466.195h-3.558a.614.614 0 0 1-.467-.195.643.643 0 0 1-.184-.456v-3.558a.632.632 0 0 1 .65-.65h3.558Zm.021 6.66c.174 0 .326.065.456.195s.195.282.195.456v3.557a.614.614 0 0 1-.195.467.643.643 0 0 1-.456.184h-3.58a.642.642 0 0 1-.455-.184.614.614 0 0 1-.195-.467v-3.557c0-.174.065-.326.195-.456a.624.624 0 0 1 .456-.195h3.58Z" fill="currentColor"/></svg>