<svg xmlns="http://www.w3.org/2000/svg" fill="none" viewBox="0 0 24 24"><path fill="currentColor" fill-rule="evenodd" d="M15.9081 12.1116c-.4918 1.2582-1.3053 2.2815-2.4406 3.0697-1.1354.7882-2.3972 1.1823-3.78568 1.1823-1.21488 0-2.33212-.3001-3.35176-.9003-1.01963-.6002-1.82954-1.4101-2.42975-2.4297C3.3001 12.0139 3 10.8967 3 9.68182c0-1.21488.3001-2.33212.90031-3.35176.60021-1.01963 1.41012-1.82954 2.42975-2.42975C7.3497 3.3001 8.46694 3 9.68182 3c1.22938 0 2.35748.31095 3.38428.93285 1.0269.62191 1.8368 1.45351 2.4298 2.49484-.3038-.05786-.6509-.08678-1.0414-.08678-.5785 0-1.1931.07231-1.844.21694-.3905-.36157-.8388-.64721-1.345-.85692-.5062-.20971-1.0341-.31457-1.58368-.31457-.781 0-1.50052.19163-2.15858.5749-.65806.38327-1.17871.90392-1.56198 1.56198s-.5749 1.37758-.5749 2.15858c0 .78098.19163 1.50048.5749 2.15858.38327.6581.90392 1.1787 1.56198 1.562.65806.3832 1.37758.5749 2.15858.5749.75208 0 1.45348-.188 2.10438-.5641.6508-.376 1.1714-.875 1.5619-1.4969.3616-.1446.7304-.2169 1.1064-.2169.5062 0 .9907.1374 1.4536.4122zm-1.4536-4.33887c1.2149 0 2.3322.3001 3.3518.90031 1.0196.60021 1.8295 1.41016 2.4298 2.42976.6002 1.0196.9003 2.1369.9003 3.3517 0 1.2149-.3001 2.3322-.9003 3.3518-.6003 1.0196-1.4102 1.8295-2.4298 2.4298-1.0196.6002-2.1369.9003-3.3518.9003-1.2438 0-2.3827-.3074-3.4168-.922-1.0341-.6147-1.84038-1.4427-2.4189-2.484.34711.0434.70145.0651 1.06302.0651.63638 0 1.24378-.0651 1.82228-.1953.3905.3616.8389.6436 1.3451.8461s1.0413.3037 1.6053.3037c.781 0 1.5006-.1916 2.1586-.5749.6581-.3833 1.1787-.9039 1.562-1.562.3833-.658.5749-1.3776.5749-2.1586 0-.781-.1916-1.5005-.5749-2.1585-.3833-.6581-.9039-1.1787-1.562-1.562-.658-.3833-1.3776-.5749-2.1586-.5749-.7665 0-1.4752.1844-2.126.5532-.6508.3688-1.1715.8714-1.562 1.5077-.3471.1591-.7086.2387-1.08468.2387-.52067 0-1.0124-.1374-1.47521-.4122.49174-1.2727 1.30526-2.30321 2.44059-3.09144 1.1353-.78823 2.4044-1.18233 3.8073-1.18233z" clip-rule="evenodd"/></svg>
