<svg viewBox="0 0 24 24" fill="none" xmlns="http://www.w3.org/2000/svg"><path fill-rule="evenodd" clip-rule="evenodd" d="M15.908 12.112c-.492 1.258-1.305 2.281-2.44 3.07a6.489 6.489 0 0 1-3.786 1.182 6.49 6.49 0 0 1-3.352-.9 6.747 6.747 0 0 1-2.43-2.43A6.49 6.49 0 0 1 3 9.682c0-1.215.3-2.332.9-3.352.6-1.02 1.41-1.83 2.43-2.43A6.49 6.49 0 0 1 9.682 3a6.41 6.41 0 0 1 3.384.933 6.812 6.812 0 0 1 2.43 2.495 5.605 5.605 0 0 0-1.042-.087c-.578 0-1.193.072-1.844.217a4.492 4.492 0 0 0-1.345-.857 4.098 4.098 0 0 0-1.583-.315c-.781 0-1.5.192-2.159.575a4.258 4.258 0 0 0-1.562 1.562 4.213 4.213 0 0 0-.575 2.159c0 .78.192 1.5.575 2.158a4.258 4.258 0 0 0 1.562 1.562 4.214 4.214 0 0 0 2.159.575c.752 0 1.453-.188 2.104-.564a4.429 4.429 0 0 0 1.562-1.497c.362-.144.73-.217 1.106-.217.507 0 .991.138 1.454.413Zm-1.454-4.34c1.215 0 2.333.3 3.352.901 1.02.6 1.83 1.41 2.43 2.43.6 1.02.9 2.137.9 3.351 0 1.215-.3 2.333-.9 3.352a6.749 6.749 0 0 1-2.43 2.43c-1.02.6-2.137.9-3.352.9a6.564 6.564 0 0 1-3.416-.922 6.538 6.538 0 0 1-2.42-2.484c.348.044.702.066 1.064.066.636 0 1.244-.066 1.822-.196a4.325 4.325 0 0 0 2.95 1.15c.781 0 1.501-.192 2.16-.575a4.258 4.258 0 0 0 1.561-1.562 4.212 4.212 0 0 0 .575-2.159c0-.78-.192-1.5-.575-2.158a4.258 4.258 0 0 0-1.562-1.562 4.212 4.212 0 0 0-2.159-.575 4.24 4.24 0 0 0-2.126.553 4.279 4.279 0 0 0-1.561 1.508 2.57 2.57 0 0 1-1.085.239 2.85 2.85 0 0 1-1.475-.412 6.572 6.572 0 0 1 2.44-3.092 6.522 6.522 0 0 1 3.807-1.182Z" fill="currentColor"/></svg>