<svg viewBox="0 0 24 24" fill="none" xmlns="http://www.w3.org/2000/svg"><path fill-rule="evenodd" clip-rule="evenodd" d="M13.16 3c.13 0 .241.043.335.13a.45.45 0 0 1 .141.347V4.91h.478c.723 0 1.395.17 2.017.51.622.34 1.136.799 1.54 1.377.405.579.644 1.223.716 1.931v.044a.402.402 0 0 1-.14.303.453.453 0 0 1-.315.13h-1.91a.496.496 0 0 1-.346-.14.796.796 0 0 1-.217-.337 1.414 1.414 0 0 0-.51-.694 1.383 1.383 0 0 0-.835-.26h-3.819c-.39 0-.726.137-1.008.412a1.367 1.367 0 0 0-.423 1.02c0 .39.14.726.423 1.008.282.282.618.423 1.008.423h3.819c.78 0 1.5.192 2.158.575a4.258 4.258 0 0 1 1.562 1.562c.384.658.575 1.378.575 2.159 0 .78-.191 1.5-.575 2.158a4.258 4.258 0 0 1-1.562 1.562 4.213 4.213 0 0 1-2.158.575h-.478v1.432a.46.46 0 0 1-.14.336.46.46 0 0 1-.337.141H11.25a.46.46 0 0 1-.336-.14.46.46 0 0 1-.141-.337v-1.432h-.477c-.724 0-1.396-.17-2.018-.51a4.475 4.475 0 0 1-1.54-1.377 4.025 4.025 0 0 1-.716-1.93v-.044c0-.116.047-.217.14-.304a.453.453 0 0 1 .315-.13h1.91c.13 0 .245.043.346.13a.72.72 0 0 1 .217.325c.102.29.275.525.521.706.246.18.52.27.825.27h3.818c.39 0 .726-.14 1.008-.422a1.38 1.38 0 0 0 .424-1.01c0-.404-.142-.744-.424-1.019a1.395 1.395 0 0 0-1.008-.412h-3.819c-.78 0-1.5-.192-2.158-.575a4.258 4.258 0 0 1-1.562-1.562A4.213 4.213 0 0 1 6 9.205c0-.781.192-1.501.575-2.159a4.258 4.258 0 0 1 1.562-1.562 4.213 4.213 0 0 1 2.159-.575h.477V3.477a.45.45 0 0 1 .14-.347.479.479 0 0 1 .337-.13h1.91Z" fill="currentColor"/></svg>