<svg xmlns="http://www.w3.org/2000/svg" fill="none" viewBox="0 0 24 24"><path fill="currentColor" fill-rule="evenodd" d="M13.1591 3c.1302 0 .2422.04339.3363.13017.094.08677.141.20247.141.3471v1.43182h.4772c.7232 0 1.3957.16994 2.0176.50982.6219.33987 1.1353.79906 1.5403 1.37758.4049.57851.6436 1.2221.7159 1.93078v.04339c0 .1157-.047.21694-.141.30372-.094.08678-.1989.13017-.3146.13017h-1.9091c-.1301 0-.2458-.04701-.3471-.14102-.1012-.09401-.1735-.20609-.2169-.33626-.1013-.28926-.2712-.52066-.5098-.69421-.2387-.17356-.5171-.26033-.8353-.26033h-3.8181c-.39054 0-.7268.13739-1.00883.41219-.28202.27479-.42303.61466-.42303 1.01963 0 .39049.14101.72675.42303 1.00875.28203.2821.61829.4231 1.00883.4231h3.8181c.781 0 1.5006.1916 2.1586.5749.6581.3832 1.1787.9039 1.562 1.5619.3833.6581.5749 1.3776.5749 2.1586 0 .781-.1916 1.5005-.5749 2.1586-.3833.6581-.9039 1.1787-1.562 1.562-.658.3832-1.3776.5749-2.1586.5749h-.4772v1.4318c0 .1302-.047.2422-.141.3363-.0941.094-.2061.141-.3363.141H11.25c-.1302 0-.2423-.047-.3363-.141-.094-.0941-.141-.2061-.141-.3363v-1.4318h-.4772c-.72319 0-1.3957-.17-2.01761-.5098-.6219-.3399-1.13533-.7991-1.54029-1.3776-.40496-.5785-.64359-1.2221-.71591-1.9308v-.0434c0-.1157.04701-.2169.14102-.3037.09401-.0868.19886-.1302.31456-.1302h1.90909c.13017 0 .24587.0434.34711.1302.10124.0868.17355.1952.21694.3254.10124.2893.2748.5243.52066.7051.24587.1807.52066.2711.82443.2711h3.8181c.3905 0 .7268-.141 1.0088-.423.282-.282.4231-.6183.4231-1.0088 0-.4049-.1411-.7448-.4231-1.0196-.282-.2748-.6183-.4122-1.0088-.4122h-3.8181c-.78104 0-1.50056-.1916-2.15862-.5749-.65806-.3833-1.17872-.9039-1.56198-1.562C6.19163 10.7051 6 9.98554 6 9.20455c0-.781.19163-1.50052.5749-2.15858.38326-.65806.90392-1.17872 1.56198-1.56198.65806-.38327 1.37758-.5749 2.15862-.5749h.4772V3.47727c0-.14463.047-.26033.141-.3471C11.0077 3.04339 11.1198 3 11.25 3h1.9091z" clip-rule="evenodd"/></svg>
