<svg viewBox="0 0 24 24" fill="none" xmlns="http://www.w3.org/2000/svg"><path fill-rule="evenodd" clip-rule="evenodd" d="M16.676 13.155a.267.267 0 0 1-.109.217.403.403 0 0 1-.26.087h-8.96a.361.361 0 0 1-.25-.087.278.278 0 0 1-.097-.217l.347-1.367.065-.152.044-.043.108-.087.065-.021.065-.044.087-.043.108-.022a.074.074 0 0 1 .055-.022c.021 0 .04-.007.054-.021l.108-.022.13-.022.13-.043.174-.022.26-.065h.066l.173-.065a.208.208 0 0 0 .152-.065l.152-.065.108-.109a.62.62 0 0 0 .109-.13c.029-.014.058-.05.087-.108a.149.149 0 0 0 .032-.076.148.148 0 0 1 .033-.076.35.35 0 0 0 .043-.152l.022-.152v-.043h.022v-.304l.021-.065v-.282a.241.241 0 0 0 .022-.109v-.195l.022-.108v-.217l.021-.13V8.49l.022-.109v-.238a.241.241 0 0 0 .022-.109v-.217a.241.241 0 0 0 .021-.108v-.217l.022-.087v-.239c0-.029.007-.05.022-.065v-.238c.014-.03.018-.051.01-.065a.097.097 0 0 1-.01-.044l-.065-.13-.109-.152-.152-.13a.427.427 0 0 0-.151-.109l-.109-.065a.35.35 0 0 0-.152-.043.074.074 0 0 0-.054-.022.074.074 0 0 1-.054-.021h-.065c-.015-.015-.037-.022-.065-.022l-.13-.065a.502.502 0 0 1-.11-.065l-.042-.022a.54.54 0 0 1-.13-.239l-.348-1.366a.29.29 0 0 1 .098-.206.338.338 0 0 1 .25-.098h6.443c.1 0 .188.033.26.098.072.065.108.133.108.206L15.05 5.67c0 .073-.044.152-.13.24l-.044.042-.174.087-.065.022c-.029 0-.05.007-.065.022h-.043a.074.074 0 0 1-.054.021.074.074 0 0 0-.055.022.35.35 0 0 0-.151.043l-.109.066a.762.762 0 0 0-.174.108l-.13.13-.108.152-.065.13a.242.242 0 0 0-.022.109.241.241 0 0 1 .022.108v.195c0 .03.007.051.021.065v.26l.022.11v.216c0 .044.007.08.022.109v.217c0 .057.007.094.022.108v.239l.021.108v.239l.022.108v.217l.022.109v.195l.021.087v.26c0 .043.008.072.022.087v.239l.022.021c0 .072.007.123.022.152l.021.152.065.152.087.108.109.13.13.109.152.065a.208.208 0 0 0 .151.065l.152.065h.087l.26.065.174.022.13.043.13.022.109.022.108.043.087.022.174.087.065.021.108.087.043.043a.348.348 0 0 1 .044.152l.369 1.367Zm-3.949 1.237v3.644l-.802 2.213h-.196l-.78-2.213v-3.645h1.778Z" fill="currentColor"/></svg>