<svg viewBox="0 0 24 24" fill="none" xmlns="http://www.w3.org/2000/svg"><path fill-rule="evenodd" clip-rule="evenodd" d="M3.239 11.224c0-.607.119-1.204.358-1.79a5.088 5.088 0 0 1 1.008-1.572c.42-.463.904-.825 1.454-1.085a3.922 3.922 0 0 1 1.779-.412h7.44V4l4.969 3.731-4.968 3.71V9.076H8.076c-.173 0-.383.04-.629.12a2.45 2.45 0 0 0-.694.358c-.506.332-.76.716-.76 1.15 0 .115.008.21.022.281l.022.196-2.386 1.866-.152-.478a3.82 3.82 0 0 1-.26-1.345Zm4.729 3.168h7.203c.159 0 .361-.04.607-.12a3.23 3.23 0 0 0 .716-.336c.506-.333.76-.723.76-1.171 0-.116-.008-.21-.023-.283l-.021-.195 2.386-1.844.174.478c.159.477.238.925.238 1.345 0 .607-.115 1.204-.347 1.79a4.928 4.928 0 0 1-.998 1.572 4.867 4.867 0 0 1-1.475 1.085 4.2 4.2 0 0 1-1.779.412H7.968v2.365L3 15.758l4.968-3.731v2.365Z" fill="currentColor"/></svg>