<svg xmlns="http://www.w3.org/2000/svg" fill="none" viewBox="0 0 24 24"><path fill="currentColor" fill-rule="evenodd" d="M20.5289 18.8151c0 .2025-.0651.3688-.1952.4989l-1.0197 1.0197c-.1301.1446-.2964.2169-.4989.2169s-.3761-.0723-.5207-.2169l-3.3626-3.3626c-1.3016.8677-2.7334 1.3016-4.2954 1.3016-1.38847 0-2.66842-.3398-3.83991-1.0196-1.1715-.6798-2.09711-1.6054-2.77686-2.7769C3.33987 13.3047 3 12.0248 3 10.6364c0-1.37401.34349-2.64672 1.03048-3.81822.68698-1.17149 1.61259-2.10072 2.77685-2.7877C7.9716 3.34349 9.24793 3 10.6364 3c1.3739 0 2.6467.34349 3.8181 1.03048 1.1715.68698 2.1008 1.61621 2.7878 2.7877.6869 1.1715 1.0304 2.44421 1.0304 3.81822 0 1.562-.4411 2.9938-1.3233 4.2954l3.3843 3.3843c.1301.1591.1952.3254.1952.499zm-9.8925-2.4515c1.0413 0 1.9994-.2567 2.8744-.7701.8751-.5134 1.5693-1.2076 2.0827-2.0827.5134-.875.7701-1.8331.7701-2.8744 0-1.0269-.2567-1.98144-.7701-2.86367-.5134-.88224-1.2076-1.58006-2.0827-2.09349-.875-.51344-1.8331-.77015-2.8744-.77015-1.04136 0-1.99952.25671-2.87452.77015-.875.51343-1.56921 1.21125-2.08264 2.09349-.51344.88223-.77015 1.83677-.77015 2.86367 0 1.0413.25671 1.9994.77015 2.8744.51343.8751 1.20764 1.5693 2.08264 2.0827.875.5134 1.83316.7701 2.87452.7701zM7.55579 7.01343c.41942-.36157.89307-.64359 1.42097-.84607.52789-.20249 1.08104-.30372 1.65964-.30372.5785 0 1.1317.10123 1.6596.30372.5279.20248 1.0015.4845 1.4209.84607H7.55579zm-1.1498 1.43182h8.46071c.2314.41942.3905.89669.4773 1.43182H5.92872c.08678-.53513.24587-1.0124.47727-1.43182zm-.49897 2.86365h9.45868c-.0578.4773-.2025.9545-.4339 1.4318H6.34091c-.23141-.4773-.37603-.9545-.43389-1.4318zm4.72938 4.1002c-.6075 0-1.19322-.1085-1.75727-.3254-.56405-.217-1.05578-.5207-1.4752-.9112h6.44317c-.4339.3905-.9256.6942-1.4752.9112-.5496.2169-1.1281.3254-1.7355.3254z" clip-rule="evenodd"/></svg>
