<svg viewBox="0 0 24 24" fill="none" xmlns="http://www.w3.org/2000/svg"><path fill-rule="evenodd" clip-rule="evenodd" d="M12 20a8 8 0 1 1 0-16 8 8 0 0 1 0 16Zm-1.252-6.128h2.029v-.305c0-.612.247-.904 1.138-1.418.956-.553 1.405-1.216 1.405-2.179 0-1.56-1.288-2.602-3.265-2.602-2.081 0-3.317 1.113-3.337 2.817h2.114c.02-.631.449-1.047 1.073-1.047.612 0 1.04.364 1.04.89 0 .573-.227.846-1.111 1.366-.904.52-1.23 1.106-1.106 2.218l.02.26Zm1.053 3.18c.676 0 1.23-.513 1.23-1.17 0-.65-.554-1.164-1.23-1.164-.683 0-1.229.514-1.229 1.164 0 .657.546 1.17 1.23 1.17Z" fill="currentColor"/></svg>