<svg viewBox="0 0 24 24" fill="none" xmlns="http://www.w3.org/2000/svg"><path fill-rule="evenodd" clip-rule="evenodd" d="M12.114 20.227a7.971 7.971 0 0 1-4.079-1.084 8.02 8.02 0 0 1-2.95-2.95A7.97 7.97 0 0 1 4 12.112a7.97 7.97 0 0 1 1.085-4.078 8.02 8.02 0 0 1 2.95-2.95A7.97 7.97 0 0 1 12.114 4a7.97 7.97 0 0 1 4.078 1.085 8.02 8.02 0 0 1 2.95 2.95 7.971 7.971 0 0 1 1.085 4.079 7.971 7.971 0 0 1-1.084 4.078 8.02 8.02 0 0 1-2.95 2.95 7.971 7.971 0 0 1-4.08 1.085Zm0-.954a6.942 6.942 0 0 0 3.59-.966 7.244 7.244 0 0 0 2.603-2.603 6.942 6.942 0 0 0 .966-3.59 6.943 6.943 0 0 0-.966-3.59 7.244 7.244 0 0 0-2.603-2.604 6.942 6.942 0 0 0-3.59-.965 6.943 6.943 0 0 0-3.59.965A7.245 7.245 0 0 0 5.92 8.523a6.943 6.943 0 0 0-.965 3.59c0 1.302.321 2.5.965 3.591a7.244 7.244 0 0 0 2.603 2.603 6.943 6.943 0 0 0 3.59.966Z" fill="currentColor"/></svg>