<svg viewBox="0 0 24 24" fill="none" xmlns="http://www.w3.org/2000/svg"><path fill-rule="evenodd" clip-rule="evenodd" d="M12.851 6c1.302 0 2.499.322 3.59.965a7.244 7.244 0 0 1 2.604 2.604 6.942 6.942 0 0 1 .965 3.59 7.08 7.08 0 0 1-.466 2.56 7.05 7.05 0 0 1-1.313 2.17.456.456 0 0 1-.325.151.456.456 0 0 1-.325-.152l-1.346-1.345a.478.478 0 0 1-.151-.347c0-.13.043-.246.13-.347a4.198 4.198 0 0 0 .933-2.69c0-.78-.192-1.5-.575-2.159a4.259 4.259 0 0 0-1.562-1.56 4.213 4.213 0 0 0-2.159-.575c-.78 0-1.5.191-2.158.575A4.259 4.259 0 0 0 9.13 11a4.213 4.213 0 0 0-.575 2.158h1.432c.173 0 .26.058.26.174a.347.347 0 0 1-.087.217l-2.603 3.34a.52.52 0 0 1-.434.24c-.16 0-.304-.08-.434-.24l-2.603-3.34A.347.347 0 0 1 4 13.333c0-.116.087-.174.26-.174h1.432c0-1.302.322-2.498.966-3.59A7.245 7.245 0 0 1 9.26 6.965 6.943 6.943 0 0 1 12.85 6Z" fill="currentColor"/></svg>