<svg viewBox="0 0 24 24" fill="none" xmlns="http://www.w3.org/2000/svg"><path fill-rule="evenodd" clip-rule="evenodd" d="M15.602 5c.203 0 .373.069.51.206a.692.692 0 0 1 .206.51v3.102h1.432c.39 0 .788.123 1.193.369s.702.55.89.911l.933 1.887c.086.174.162.395.227.662.065.268.098.503.098.705v2.387a.703.703 0 0 1-.206.499.675.675 0 0 1-.51.216h-1.193c0 .651-.232 1.212-.694 1.682a2.285 2.285 0 0 1-1.692.705c-.666 0-1.23-.235-1.693-.705a2.313 2.313 0 0 1-.694-1.681H8.682c0 .65-.232 1.21-.694 1.68a2.285 2.285 0 0 1-1.693.706 2.285 2.285 0 0 1-1.692-.705 2.313 2.313 0 0 1-.694-1.681H2.716a.686.686 0 0 1-.5-.217.686.686 0 0 1-.216-.5V5.717c0-.203.069-.373.206-.51A.692.692 0 0 1 2.716 5h12.886Zm4.426 7.636-1.063-2.126c-.101-.188-.275-.358-.52-.51-.247-.151-.478-.227-.695-.227h-1.432v2.863h3.71ZM6.295 15.023c-.39 0-.726.137-1.008.412a1.367 1.367 0 0 0-.423 1.02c0 .39.14.726.423 1.008.282.282.618.423 1.008.423.391 0 .727-.14 1.01-.423a1.38 1.38 0 0 0 .422-1.009c0-.404-.14-.744-.423-1.02a1.395 1.395 0 0 0-1.009-.411Zm10.5 0c-.39 0-.726.137-1.008.412a1.367 1.367 0 0 0-.423 1.02c0 .39.14.726.423 1.008.282.282.618.423 1.008.423.391 0 .727-.14 1.01-.423a1.38 1.38 0 0 0 .422-1.009c0-.404-.14-.744-.423-1.02a1.395 1.395 0 0 0-1.008-.411Z" fill="currentColor"/></svg>