<svg viewBox="0 0 24 24" fill="none" xmlns="http://www.w3.org/2000/svg"><path fill-rule="evenodd" clip-rule="evenodd" d="M12.482 17.08a.52.52 0 0 1-.433.238c-.174 0-.326-.08-.456-.239l-4.36-5.553c-.087-.116-.13-.217-.13-.304 0-.173.13-.26.39-.26h3.102V3h2.864v7.962h3.102c.13 0 .231.025.304.076.072.05.108.112.108.184 0 .087-.043.188-.13.304l-4.36 5.553Zm7.03-9.785c.202 0 .372.07.51.207a.692.692 0 0 1 .205.51v11.454a.692.692 0 0 1-.206.51.693.693 0 0 1-.51.206H4.716a.703.703 0 0 1-.5-.206.675.675 0 0 1-.216-.51V8.01c0-.202.072-.372.217-.51a.703.703 0 0 1 .499-.206H9.25v1.91H5.91v9.068h12.408V9.205h-3.34v-1.91h4.533Z" fill="currentColor"/></svg>