<?xml version="1.0" encoding="UTF-8"?>
<svg width="24px" height="24px" viewBox="0 0 24 24" version="1.1" xmlns="http://www.w3.org/2000/svg" xmlns:xlink="http://www.w3.org/1999/xlink">
    <g id="icon/UI-library/search" stroke="none" stroke-width="1" fill="none" fill-rule="evenodd">
        <path d="M15.0317379,13.6175243 L18.7071068,17.2928932 L17.2928932,18.7071068 L13.6175243,15.0317379 C12.7314831,15.642436 11.6574983,16 10.5,16 C7.46243388,16 5,13.5375661 5,10.5 C5,7.46243388 7.46243388,5 10.5,5 C13.5375661,5 16,7.46243388 16,10.5 C16,11.6574983 15.642436,12.7314831 15.0317379,13.6175243 Z M10.5,14 C12.4329966,14 14,12.4329966 14,10.5 C14,8.56700338 12.4329966,7 10.5,7 C8.56700338,7 7,8.56700338 7,10.5 C7,12.4329966 8.56700338,14 10.5,14 Z" id="Icon" fill="currentColor"></path>
    </g>
</svg>
