<svg viewBox="0 0 24 24" fill="none" xmlns="http://www.w3.org/2000/svg"><path fill-rule="evenodd" clip-rule="evenodd" d="M13.023 4a2.849 2.849 0 0 1 2.484 1.421c.253.441.38.922.38 1.443v.954h1.431v12.41h-10.5V7.817H8.25v-.954A2.849 2.849 0 0 1 9.671 4.38 2.85 2.85 0 0 1 11.114 4h1.909Zm-1.91 1.432c-.39 0-.726.14-1.008.423a1.377 1.377 0 0 0-.423 1.009v.954h4.772v-.954c0-.39-.14-.727-.423-1.01a1.377 1.377 0 0 0-1.008-.422h-1.91Zm-6.68 14.795c-.39 0-.727-.137-1.009-.412A1.367 1.367 0 0 1 3 18.795V9.25c0-.39.141-.727.423-1.009a1.377 1.377 0 0 1 1.009-.423h.954v12.41h-.954ZM19.704 7.818c.391 0 .727.141 1.01.423.281.282.422.619.422 1.009v9.546c0 .404-.14.744-.423 1.02a1.395 1.395 0 0 1-1.009.411h-.954V7.818h.954Z" fill="currentColor"/></svg>