<svg xmlns="http://www.w3.org/2000/svg" fill="none" viewBox="0 0 24 24"><path fill="currentColor" fill-rule="evenodd" d="M20.5506 3.3905c0 .05785-.0217.14462-.0651.26033L12.0682 20.5072c-.1157.2025-.2676.3038-.4556.3038-.1446 0-.2748-.0579-.3905-.1736L8.79236 18.186l-1.43182 1.8006c-.04339.0578-.07955.0831-.10847.0759-.02893-.0072-.04339-.047-.04339-.1193v-3.3409L18.3378 5.47314 5.77686 15.1705l-2.60331-2.6034C3.05785 12.4514 3 12.3285 3 12.1983c0-.188.10124-.3398.30372-.4555L20.1601 3.32541c.188-.08677.311-.10124.3688-.04339L20.811 3l-.2604.32541v.06509z" clip-rule="evenodd"/></svg>
