<svg width="24" height="24" xmlns="http://www.w3.org/2000/svg"><path d="M21.223 13.066a.416.416 0 01-.13.304.416.416 0 01-.304.13h-1.562a.762.762 0 00-.488.184.953.953 0 00-.314.445 9.249 9.249 0 01-.434 1.02.832.832 0 00-.087.412c0 .26.072.463.217.607l1.106 1.085c.087.087.13.188.13.304 0 .13-.043.238-.13.325l-1.366 1.345c-.058.087-.16.13-.304.13a.416.416 0 01-.304-.13l-1.085-1.084c-.159-.16-.368-.24-.629-.24a.912.912 0 00-.412.088c-.318.173-.65.318-.998.434a.953.953 0 00-.445.314.762.762 0 00-.184.488v1.562a.416.416 0 01-.13.304.416.416 0 01-.304.13h-1.93a.416.416 0 01-.304-.13.416.416 0 01-.13-.304v-1.562a.762.762 0 00-.185-.488.953.953 0 00-.445-.314 4.747 4.747 0 01-.998-.434.912.912 0 00-.412-.087.823.823 0 00-.607.239l-1.107 1.084a.416.416 0 01-.607 0l-1.367-1.345a.55.55 0 01-.108-.325.52.52 0 01.108-.304l1.107-1.085a.823.823 0 00.238-.607.924.924 0 00-.108-.412 7.832 7.832 0 01-.412-1.02.953.953 0 00-.315-.445.79.79 0 00-.51-.184h-1.54a.416.416 0 01-.304-.13.416.416 0 01-.13-.304v-1.909c0-.116.043-.217.13-.304a.416.416 0 01.304-.13h1.54a.79.79 0 00.51-.184.953.953 0 00.315-.445c.13-.39.267-.73.412-1.02a.963.963 0 00.108-.434.796.796 0 00-.238-.585L4.974 6.948a.52.52 0 01-.108-.303.52.52 0 01.108-.304l1.367-1.345a.416.416 0 01.607 0L8.055 6.08c.159.159.354.238.585.238.145 0 .29-.036.434-.108a8.8 8.8 0 01.998-.412.953.953 0 00.445-.315.79.79 0 00.184-.51v-1.54c0-.116.044-.217.13-.304a.416.416 0 01.304-.13h1.931c.116 0 .217.043.304.13.087.087.13.188.13.304v1.54a.79.79 0 00.184.51.953.953 0 00.445.315c.304.1.636.238.998.412.145.072.29.108.434.108.246 0 .448-.08.607-.238l1.085-1.085a.416.416 0 01.304-.13c.144 0 .246.043.304.13l1.366 1.345a.416.416 0 010 .607l-1.106 1.107c-.145.144-.217.347-.217.607 0 .16.029.297.087.412.115.217.26.557.434 1.02a.953.953 0 00.314.445.762.762 0 00.488.184h1.562c.116 0 .217.044.304.13.087.087.13.188.13.304v1.91zM8.25 12.112c0 .506.098.994.293 1.464.195.47.474.886.835 1.247.752.752 1.663 1.128 2.734 1.128a3.82 3.82 0 002.712-1.128 3.82 3.82 0 00.835-1.247c.195-.47.292-.958.292-1.464A3.82 3.82 0 0014.823 9.4a3.82 3.82 0 00-1.247-.835 3.781 3.781 0 00-1.464-.293c-1.07 0-1.982.376-2.734 1.128a3.82 3.82 0 00-.835 1.247c-.195.47-.293.958-.293 1.465z" fill="#192226" fill-rule="evenodd"/></svg>
