<svg viewBox="0 0 24 24" fill="none" xmlns="http://www.w3.org/2000/svg"><path fill-rule="evenodd" clip-rule="evenodd" d="M21.18 6.946a.52.52 0 0 1-.239.434l-5.554 4.36a.469.469 0 0 1-.303.13c-.174 0-.26-.13-.26-.39V8.378c-1.678 0-3.041.362-4.09 1.085s-1.797 1.526-2.245 2.408c-.449.882-.673 1.57-.673 2.06 0 .232-.069.41-.206.532a.736.736 0 0 1-.51.185.748.748 0 0 1-.499-.185c-.144-.123-.217-.3-.217-.531 0-1.042.188-2.188.564-3.439.376-1.25 1.19-2.393 2.44-3.427 1.252-1.034 3.063-1.552 5.435-1.552V2.412c0-.275.094-.412.282-.412.087 0 .181.043.282.13l5.554 4.36c.16.116.239.268.239.456ZM19.227 17.99a.693.693 0 0 1-.206.51.693.693 0 0 1-.51.206H3.716a.693.693 0 0 1-.51-.206.693.693 0 0 1-.206-.51V7.01c0-.202.072-.372.217-.51a.703.703 0 0 1 .499-.206h4.49a7.856 7.856 0 0 0-1.67 1.91H4.91v8.59h12.41v-4.729l1.908-1.519v7.442Z" fill="currentColor"/></svg>