<svg viewBox="0 0 24 24" fill="none" xmlns="http://www.w3.org/2000/svg"><path fill-rule="evenodd" clip-rule="evenodd" d="M17.602 3c.203 0 .373.069.51.206a.692.692 0 0 1 .206.51v4.642c0 .26-.072.391-.217.391-.072 0-.166-.058-.282-.174l-1.518-1.518-4.556 4.534 4.556 4.556 1.518-1.519c.116-.116.217-.174.304-.174.058 0 .105.033.14.098a.562.562 0 0 1 .055.271v4.643a.692.692 0 0 1-.206.51.692.692 0 0 1-.51.206H12.96c-.246 0-.37-.072-.37-.217 0-.087.052-.18.153-.282l1.518-1.519-4.121-4.122c-.275-.274-.651-.513-1.129-.716-.477-.202-.91-.303-1.301-.303H4.477a.46.46 0 0 1-.336-.141.459.459 0 0 1-.141-.336v-1.91a.46.46 0 0 1 .141-.336.46.46 0 0 1 .336-.14H7.71c.39 0 .824-.098 1.301-.294.478-.195.854-.43 1.129-.705l4.12-4.121-1.518-1.518c-.101-.102-.152-.203-.152-.304 0-.145.123-.217.369-.217h4.642Z" fill="currentColor"/></svg>