<svg viewBox="0 0 24 24" fill="none" xmlns="http://www.w3.org/2000/svg"><path fill-rule="evenodd" clip-rule="evenodd" d="m13.822 1.922 2.43 3.19c.028.028.043.072.043.13 0 .057-.015.1-.044.13l-2.43 3.21c-.086.087-.173.13-.26.13h-.238a.187.187 0 0 1-.12-.043c-.036-.029-.054-.072-.054-.13V6.456h-1.28a5.354 5.354 0 0 0-1.985.467 5.6 5.6 0 0 0-1.681 1.16 5.755 5.755 0 0 0-1.204 1.823 5.495 5.495 0 0 0-.423 2.126c0 .738.14 1.446.423 2.126.282.68.683 1.287 1.204 1.822.535.535 1.142.94 1.822 1.215a5.62 5.62 0 0 0 2.126.412 5.596 5.596 0 0 0 3.536-1.237l.413-.39c.636-.607 1.106-1.374 1.41-2.3a.438.438 0 0 1 .195-.27.4.4 0 0 1 .325-.055l1.28.282c.145.015.26.08.347.195.087.116.13.246.13.391a.59.59 0 0 1-.021.174 7.84 7.84 0 0 1-1.009 2.104 7.96 7.96 0 0 1-6.606 3.493A7.72 7.72 0 0 1 8.16 18.92a8.057 8.057 0 0 1-2.896-2.896 7.72 7.72 0 0 1-1.074-3.992 7.73 7.73 0 0 1 1.02-3.894 8.074 8.074 0 0 1 2.766-2.886 7.686 7.686 0 0 1 3.83-1.182h1.344V1.944c0-.043.018-.08.054-.108a.187.187 0 0 1 .12-.044h.238c.102 0 .188.044.26.13Z" fill="currentColor"/></svg>