<svg width="24" height="24" xmlns="http://www.w3.org/2000/svg"><path d="M14.413 3.315A4.808 4.808 0 0116.153 3a4.83 4.83 0 011.857.367c.595.245 1.116.591 1.563 1.039A4.806 4.806 0 0121 7.846c0 .616-.105 1.196-.315 1.741.21.77.315 1.574.315 2.413 0 .84-.105 1.636-.315 2.392.21.56.315 1.146.315 1.762 0 .643-.122 1.259-.367 1.846a4.842 4.842 0 01-1.06 1.573 4.614 4.614 0 01-1.552 1.06 4.806 4.806 0 01-3.608.031A9.198 9.198 0 0112 21a9.198 9.198 0 01-2.413-.336 4.806 4.806 0 01-3.608-.031 4.614 4.614 0 01-1.552-1.06A4.842 4.842 0 013.367 18 4.753 4.753 0 013 16.154c0-.616.105-1.203.315-1.762A8.897 8.897 0 013 12c0-.84.105-1.643.315-2.413A4.808 4.808 0 013 7.847a4.806 4.806 0 011.427-3.441A4.738 4.738 0 015.99 3.367 4.83 4.83 0 017.846 3c.616 0 1.196.105 1.741.315A9.284 9.284 0 0112 3c.825 0 1.63.105 2.413.315zm-6.567.147c-.797 0-1.531.195-2.203.587A4.358 4.358 0 004.05 5.643a4.294 4.294 0 00-.587 2.203c0 .308.035.637.104.986a8.975 8.975 0 012.067-3.2 8.975 8.975 0 013.2-2.066 5.04 5.04 0 00-.987-.104zm7.322.104a8.975 8.975 0 013.2 2.067 8.975 8.975 0 012.066 3.2c.07-.35.104-.68.104-.987 0-.797-.195-1.531-.587-2.203a4.358 4.358 0 00-1.594-1.594 4.294 4.294 0 00-2.203-.587 5.04 5.04 0 00-.986.104zm-6.42.588a8.727 8.727 0 00-2.727 1.825 8.415 8.415 0 00-1.867 2.77l3.356 1.384a4.69 4.69 0 011.07-1.574 5.165 5.165 0 011.574-1.049L8.748 4.154zm5.12 3.356a4.69 4.69 0 011.573 1.07c.447.462.797.98 1.049 1.553l3.356-1.385a8.727 8.727 0 00-1.825-2.727 8.415 8.415 0 00-2.77-1.867L13.868 7.51zM12 7.615c-.797 0-1.531.196-2.203.588a4.358 4.358 0 00-1.594 1.594A4.294 4.294 0 007.615 12c0 .797.196 1.531.588 2.203a4.358 4.358 0 001.594 1.594 4.294 4.294 0 002.203.588c.797 0 1.531-.196 2.203-.588a4.358 4.358 0 001.594-1.594A4.294 4.294 0 0016.385 12c0-.797-.196-1.531-.588-2.203a4.358 4.358 0 00-1.594-1.594A4.294 4.294 0 0012 7.615zm-7.846 7.637a8.727 8.727 0 001.825 2.727 8.415 8.415 0 002.77 1.867l1.405-3.377a4.714 4.714 0 01-1.595-1.06 5.035 5.035 0 01-1.049-1.563l-3.356 1.406zm12.336-1.406a4.983 4.983 0 01-1.08 1.595c-.455.447-.976.79-1.564 1.028l1.406 3.377a8.727 8.727 0 002.727-1.825 8.415 8.415 0 001.867-2.77l-3.356-1.405zM3.462 16.154c0 .797.195 1.531.587 2.203a4.358 4.358 0 001.594 1.594 4.294 4.294 0 002.203.587c.35 0 .678-.041.986-.125a8.808 8.808 0 01-3.189-2.056 9.05 9.05 0 01-2.077-3.19 5.04 5.04 0 00-.104.987zm16.972-.986a9.05 9.05 0 01-2.077 3.189 8.808 8.808 0 01-3.19 2.056 4.294 4.294 0 003.189-.462 4.358 4.358 0 001.595-1.594 4.294 4.294 0 00.587-2.203 5.04 5.04 0 00-.104-.986z" fill="#192226" fill-rule="evenodd"/></svg>
