<svg viewBox="0 0 24 24" fill="none" xmlns="http://www.w3.org/2000/svg"><path fill-rule="evenodd" clip-rule="evenodd" d="M11.068 2.465c.781 0 1.5.191 2.159.575a4.26 4.26 0 0 1 1.562 1.562c.383.658.575 1.377.575 2.158 0 .593-.062 1.081-.185 1.465a3.51 3.51 0 0 1-.618 1.117c-.29.361-.745.832-1.367 1.41-.824.767-1.385 1.493-1.681 2.18-.297.687-.445 1.515-.445 2.484 0 .723.12 1.414.358 2.072a6.151 6.151 0 0 0 1.009 1.79c.058.116.086.18.086.195 0 .116-.086.174-.26.174H4.863c-.39 0-.726-.141-1.008-.423a1.377 1.377 0 0 1-.423-1.01v-3.34c0-.665.253-1.29.759-1.877.506-.585 1.208-1.08 2.104-1.486.897-.405 1.91-.68 3.037-.824a4.354 4.354 0 0 1-1.854-1.573 4.134 4.134 0 0 1-.705-2.354c0-.78.191-1.5.574-2.158A4.258 4.258 0 0 1 8.91 3.04a4.213 4.213 0 0 1 2.159-.575Zm6.205 7.701a5.12 5.12 0 0 1 2.635.705 5.254 5.254 0 0 1 1.91 1.91c.47.802.704 1.68.704 2.635a5.14 5.14 0 0 1-.704 2.625 5.228 5.228 0 0 1-1.91 1.92 5.122 5.122 0 0 1-2.636.705 5.122 5.122 0 0 1-2.635-.705 5.228 5.228 0 0 1-1.91-1.92 5.141 5.141 0 0 1-.704-2.625c0-.954.235-1.833.705-2.636a5.254 5.254 0 0 1 1.909-1.909 5.122 5.122 0 0 1 2.636-.705Zm0 .955c-.781 0-1.501.191-2.159.575a4.259 4.259 0 0 0-1.562 1.562 4.213 4.213 0 0 0-.575 2.158c0 .781.192 1.5.575 2.159a4.258 4.258 0 0 0 1.562 1.562 4.212 4.212 0 0 0 2.159.575c.78 0 1.5-.192 2.158-.575a4.258 4.258 0 0 0 1.562-1.562 4.213 4.213 0 0 0 .575-2.159c0-.78-.192-1.5-.575-2.158a4.259 4.259 0 0 0-1.562-1.562 4.213 4.213 0 0 0-2.158-.575Zm-3.341 3.34h6.681v1.91h-6.681v-1.91Z" fill="currentColor"/></svg>