<svg viewBox="0 0 24 24" fill="none" xmlns="http://www.w3.org/2000/svg"><path fill-rule="evenodd" clip-rule="evenodd" d="M12.78 8.975c0-1.157.366-2.054 1.096-2.69a6.367 6.367 0 0 1 2.473-1.345c.918-.26 1.378-.354 1.378-.282V2.814l4.295 3.08-4.295 3.081V6.98c-.854 0-1.497.036-1.931.109-.709.087-1.287.267-1.736.542-.448.275-.774.553-.976.835-.202.282-.304.452-.304.51ZM3.191 20.95a1.17 1.17 0 0 1-.856-.358 1.17 1.17 0 0 1-.358-.857v-2.841c0-.564.216-1.092.65-1.584.434-.492 1.03-.911 1.79-1.258.76-.348 1.616-.579 2.57-.695a3.613 3.613 0 0 1-1.572-1.334 3.554 3.554 0 0 1-.596-2.007c0-.65.162-1.258.488-1.822a3.604 3.604 0 0 1 3.156-1.822c.651 0 1.255.163 1.812.488.556.325.998.77 1.323 1.334a3.59 3.59 0 0 1 .488 1.822c0 .738-.199 1.407-.597 2.007a3.613 3.613 0 0 1-1.572 1.334c.954.116 1.811.348 2.57.695.76.347 1.356.766 1.79 1.258.434.492.651 1.02.651 1.583v2.842c0 .333-.12.619-.358.857a1.17 1.17 0 0 1-.857.358H3.191Z" fill="currentColor"/></svg>