<svg viewBox="0 0 24 24" fill="none" xmlns="http://www.w3.org/2000/svg"><path fill-rule="evenodd" clip-rule="evenodd" d="M7.209 3c.368 0 .65.304.65.65v3.56a.64.64 0 0 1-.65.65H3.65A.653.653 0 0 1 3 7.21V3.65c0-.346.304-.65.65-.65h3.56Zm6.703 0c.347 0 .651.304.651.65v3.56c0 .368-.304.65-.65.65h-3.58a.653.653 0 0 1-.651-.65V3.65c0-.347.304-.651.65-.651h3.58Zm6.66 0c.37 0 .651.304.651.65v3.56a.64.64 0 0 1-.65.65h-3.558a.653.653 0 0 1-.651-.65V3.65c0-.347.303-.651.65-.651h3.558ZM7.21 9.682c.368 0 .65.304.65.65v3.558a.64.64 0 0 1-.65.651H3.65a.653.653 0 0 1-.651-.65v-3.558c0-.347.304-.651.65-.651H7.21Zm13.363 0c.37 0 .651.304.651.65v3.558a.64.64 0 0 1-.65.651h-3.558a.653.653 0 0 1-.651-.65v-3.558c0-.347.303-.651.65-.651h3.558Zm-6.681.022a.64.64 0 0 1 .65.65v3.558a.653.653 0 0 1-.65.651h-3.558a.653.653 0 0 1-.651-.65v-3.559a.64.64 0 0 1 .65-.65h3.558Zm-6.682 6.66c.368 0 .65.303.65.65v3.558a.64.64 0 0 1-.65.651H3.65a.653.653 0 0 1-.651-.65v-3.558c0-.348.304-.651.65-.651H7.21Zm6.703 0c.347 0 .651.303.651.65v3.558c0 .37-.304.651-.65.651h-3.58a.653.653 0 0 1-.651-.65v-3.558c0-.348.304-.651.65-.651h3.58Zm6.66 0c.37 0 .651.303.651.65v3.558a.64.64 0 0 1-.65.651h-3.558a.653.653 0 0 1-.651-.65v-3.558c0-.348.303-.651.65-.651h3.558Z" fill="currentColor"/></svg>