<svg viewBox="0 0 24 24" fill="none" xmlns="http://www.w3.org/2000/svg"><path fill-rule="evenodd" clip-rule="evenodd" d="M2.738 10.704H2V8.75h4.99L9.723 4l1.692.955-2.17 3.796h5.772l-2.17-3.796L14.54 4l2.712 4.751h5.011v1.953h-.759l-2.191 8.807a.984.984 0 0 1-.347.532.95.95 0 0 1-.608.206H5.905a.95.95 0 0 1-.607-.206.983.983 0 0 1-.348-.532l-2.212-8.807Zm2.017 0 1.91 7.593h10.933l1.91-7.594H4.754Zm5.228 1.561v4.491H8.031v-4.49h1.952Zm3.124 0v4.491h-1.952v-4.49h1.952Zm3.103 0v4.491h-1.931v-4.49h1.93Z" fill="currentColor"/></svg>