<svg viewBox="0 0 24 24" fill="none" xmlns="http://www.w3.org/2000/svg"><path fill-rule="evenodd" clip-rule="evenodd" d="M12.068 3c1.649 0 3.168.409 4.556 1.226a9.098 9.098 0 0 1 3.298 3.308 8.84 8.84 0 0 1 1.214 4.534 8.862 8.862 0 0 1-.954 4.057 9.023 9.023 0 0 1-2.604 3.146.323.323 0 0 1-.238.086.366.366 0 0 1-.206-.065.369.369 0 0 1-.141-.173l-.434-.89a.76.76 0 0 1-.044-.238.58.58 0 0 1 .217-.478 7.292 7.292 0 0 0 1.834-2.43c.44-.94.661-1.945.661-3.015a6.943 6.943 0 0 0-.965-3.59 7.245 7.245 0 0 0-2.603-2.604 6.943 6.943 0 0 0-3.59-.965 6.943 6.943 0 0 0-3.591.965 7.245 7.245 0 0 0-2.604 2.604 6.943 6.943 0 0 0-.965 3.59 7 7 0 0 0 .662 3.016 7.293 7.293 0 0 0 1.833 2.43.578.578 0 0 1 .217.477.76.76 0 0 1-.044.238l-.433.89a.369.369 0 0 1-.141.173.366.366 0 0 1-.207.065.323.323 0 0 1-.238-.086 9.024 9.024 0 0 1-2.603-3.146A8.863 8.863 0 0 1 3 12.068a8.84 8.84 0 0 1 1.215-4.534 9.098 9.098 0 0 1 3.297-3.308A8.826 8.826 0 0 1 12.068 3Zm0 3.818c.955 0 1.833.235 2.636.705.803.47 1.44 1.11 1.91 1.92.47.81.704 1.685.704 2.625 0 .694-.126 1.353-.38 1.974a5.115 5.115 0 0 1-1.073 1.65.292.292 0 0 1-.26.13c-.116 0-.21-.073-.283-.218l-.455-.976a.724.724 0 0 1-.065-.325c0-.203.043-.37.13-.5.318-.52.477-1.099.477-1.735 0-.607-.148-1.168-.445-1.681a3.265 3.265 0 0 0-1.215-1.215 3.303 3.303 0 0 0-1.68-.445c-.608 0-1.169.149-1.682.445a3.265 3.265 0 0 0-1.215 1.215 3.303 3.303 0 0 0-.445 1.681c0 .636.16 1.215.478 1.736.086.13.13.296.13.499a.73.73 0 0 1-.065.325l-.456.976c-.072.145-.166.217-.282.217a.328.328 0 0 1-.26-.13 5.115 5.115 0 0 1-1.074-1.649 5.187 5.187 0 0 1-.38-1.974c0-.94.235-1.815.705-2.625a5.228 5.228 0 0 1 1.91-1.92 5.123 5.123 0 0 1 2.635-.705Zm0 3.341c.535 0 .987.188 1.356.564.369.376.553.824.553 1.345 0 .535-.184.987-.553 1.356-.369.369-.82.553-1.356.553-.535 0-.987-.184-1.356-.553a1.844 1.844 0 0 1-.553-1.356c0-.52.184-.969.553-1.345.37-.376.821-.564 1.356-.564Zm1.172 5.076c.217 0 .368.095.455.283l2.061 4.317a.69.69 0 0 1 .044.195.494.494 0 0 1-.076.271.382.382 0 0 1-.206.163 9.046 9.046 0 0 1-3.45.672 9.06 9.06 0 0 1-3.45-.672.381.381 0 0 1-.205-.163.494.494 0 0 1-.076-.271c0-.043.014-.108.043-.195l2.061-4.317a.489.489 0 0 1 .456-.283c.043 0 .108.015.195.044.304.087.63.13.976.13.347 0 .673-.043.976-.13a.69.69 0 0 1 .196-.043Z" fill="currentColor"/></svg>