<svg viewBox="0 0 24 24" fill="none" xmlns="http://www.w3.org/2000/svg"><path fill-rule="evenodd" clip-rule="evenodd" d="M19.511 3c.203 0 .373.069.51.206a.692.692 0 0 1 .206.51v12.886c0 .188-.061.387-.184.597-.123.21-.264.372-.423.488l-6.899 4.035c-.145.101-.347.152-.607.152-.246 0-.449-.05-.608-.152l-6.899-4.035a1.578 1.578 0 0 1-.423-.488A1.186 1.186 0 0 1 4 16.602V3.716c0-.203.072-.373.217-.51A.703.703 0 0 1 4.716 3H19.51Zm-4.534 12.886h2.387v-4.772l-.478-5.728h-1.431l-.478 5.728v4.772ZM10.9 7.643c-.145 0-.217.122-.217.368v3.103l-3.32-3.32c-.1-.1-.195-.151-.281-.151-.145 0-.217.122-.217.368v7.875H14.5v-4.772l-3.32-3.32c-.1-.1-.194-.151-.281-.151Z" fill="currentColor"/></svg>