<svg viewBox="0 0 24 24" fill="none" xmlns="http://www.w3.org/2000/svg"><path fill-rule="evenodd" clip-rule="evenodd" d="M20.572 3a.632.632 0 0 1 .651.65v16.922a.632.632 0 0 1-.65.651h-8.201V9.812c0-.304-.109-.56-.325-.77a1.058 1.058 0 0 0-.76-.315h-2.69V3.651c0-.188.065-.344.195-.467A.643.643 0 0 1 9.248 3h11.324ZM10.094 4.952v2.213h2.213V4.952h-2.213Zm3.775 0v2.213h2.213V4.952h-2.213Zm3.775 0v2.213h2.212V4.952h-2.212Zm-3.775 3.775v2.213h2.213V8.727h-2.213Zm3.775 0v2.213h2.212V8.727h-2.212ZM9.986 10.42a.632.632 0 0 1 .65.651v10.153H3.651a.624.624 0 0 1-.456-.195A.65.65 0 0 1 3 20.55v-9.48c0-.189.065-.344.195-.467a.643.643 0 0 1 .456-.185h6.335Zm3.883 2.17v2.213h2.213V12.59h-2.213Zm3.775 0v2.213h2.212V12.59h-2.212Zm-3.775 3.97v2.191h2.213V16.56h-2.213Zm3.775 0v2.191h2.212V16.56h-2.212Z" fill="currentColor"/></svg>