<svg viewBox="0 0 24 24" fill="none" xmlns="http://www.w3.org/2000/svg"><path fill-rule="evenodd" clip-rule="evenodd" d="M21.33 5.432c.202 0 .372.069.51.206a.692.692 0 0 1 .206.51V19.51a.693.693 0 0 1-.207.51.693.693 0 0 1-.51.206H2.716a.703.703 0 0 1-.5-.206.675.675 0 0 1-.216-.51V4.716c0-.203.069-.373.206-.51A.692.692 0 0 1 2.716 4h5.597c.101 0 .21.025.325.076.116.05.203.112.26.184L9.94 5.432h11.39Zm-4.686 11.975c.694 0 1.29-.25 1.79-.748a2.468 2.468 0 0 0 .748-1.812c0-.694-.25-1.29-.749-1.79a2.443 2.443 0 0 0-1.79-.748 2.58 2.58 0 0 0-.824.13v-.13c0-.723-.18-1.392-.542-2.007a4.061 4.061 0 0 0-1.464-1.464 3.888 3.888 0 0 0-2.007-.543c-.709 0-1.37.174-1.985.521a3.972 3.972 0 0 0-1.465 1.41 3.517 3.517 0 0 0-.455-.022 3.47 3.47 0 0 0-1.8.489c-.55.325-.988.763-1.313 1.312a3.47 3.47 0 0 0-.488 1.8c0 .652.162 1.252.488 1.801.325.55.763.987 1.312 1.313a3.47 3.47 0 0 0 1.8.488h8.744Z" fill="currentColor"/></svg>