<svg viewBox="0 0 24 24" fill="none" xmlns="http://www.w3.org/2000/svg"><path fill-rule="evenodd" clip-rule="evenodd" d="M10.417 13.447c.44.42.44 1.107 0 1.526a1.083 1.083 0 0 1-1.526 0 5.377 5.377 0 0 1 0-7.597l3.804-3.804a5.377 5.377 0 0 1 7.597 0 5.377 5.377 0 0 1 0 7.597l-1.601 1.601a7.421 7.421 0 0 0-.43-2.6l.505-.516a3.204 3.204 0 0 0 0-4.556 3.204 3.204 0 0 0-4.556 0L10.417 8.89a3.204 3.204 0 0 0 0 4.556Zm3.03-4.556c.42-.42 1.107-.42 1.526 0a5.377 5.377 0 0 1 0 7.597l-3.804 3.804a5.377 5.377 0 0 1-7.597 0 5.377 5.377 0 0 1 0-7.597l1.6-1.601c-.01.88.13 1.762.43 2.61l-.505.506a3.204 3.204 0 0 0 0 4.556 3.204 3.204 0 0 0 4.557 0l3.793-3.793a3.204 3.204 0 0 0 0-4.556 1.046 1.046 0 0 1 0-1.526Z" fill="currentColor"/></svg>