<svg viewBox="0 0 24 24" fill="none" xmlns="http://www.w3.org/2000/svg"><path fill-rule="evenodd" clip-rule="evenodd" d="M16.103 20.941a20.082 20.082 0 0 1-7.983-4.924 20.082 20.082 0 0 1-4.925-7.984 3.75 3.75 0 0 1 .087-2.625c.188-.463.456-.868.803-1.215l.629-.607c.39-.39.853-.586 1.388-.586.318 0 .626.076.922.228.297.152.539.372.727.661l1.736 2.582c.217.318.325.68.325 1.085 0 .55-.195 1.02-.586 1.41l-.325.325a.943.943 0 0 0-.282.695c0 .13.036.282.108.455a11.036 11.036 0 0 0 2.083 2.885 11.034 11.034 0 0 0 2.885 2.083c.174.072.326.109.456.109a.943.943 0 0 0 .694-.283l.325-.325c.391-.39.861-.586 1.41-.586.391 0 .753.109 1.085.326l2.582 1.735c.29.188.51.43.662.727.151.297.227.604.227.922a1.9 1.9 0 0 1-.585 1.389l-.608.629a3.633 3.633 0 0 1-1.215.802 3.77 3.77 0 0 1-2.625.087Z" fill="currentColor"/></svg>