<svg viewBox="0 0 24 24" fill="none" xmlns="http://www.w3.org/2000/svg"><path fill-rule="evenodd" clip-rule="evenodd" d="M20.529 18.815a.676.676 0 0 1-.195.499l-1.02 1.02a.641.641 0 0 1-.499.217.71.71 0 0 1-.52-.217l-3.363-3.363a7.582 7.582 0 0 1-4.296 1.302 7.516 7.516 0 0 1-3.84-1.02 7.523 7.523 0 0 1-2.776-2.777A7.516 7.516 0 0 1 3 10.636c0-1.374.343-2.646 1.03-3.818A7.716 7.716 0 0 1 6.807 4.03 7.398 7.398 0 0 1 10.637 3c1.373 0 2.646.343 3.817 1.03a7.69 7.69 0 0 1 2.788 2.788 7.416 7.416 0 0 1 1.03 3.818 7.494 7.494 0 0 1-1.323 4.296l3.385 3.384c.13.16.195.326.195.5Zm-9.893-2.451c1.042 0 2-.257 2.875-.77a5.75 5.75 0 0 0 2.083-2.083c.513-.875.77-1.833.77-2.875a5.596 5.596 0 0 0-.77-2.863 5.724 5.724 0 0 0-2.083-2.094 5.577 5.577 0 0 0-2.875-.77c-1.041 0-2 .257-2.874.77a5.725 5.725 0 0 0-2.083 2.094 5.595 5.595 0 0 0-.77 2.863c0 1.042.257 2 .77 2.875a5.75 5.75 0 0 0 2.083 2.083 5.58 5.58 0 0 0 2.874.77Zm-3.08-9.35a4.78 4.78 0 0 1 1.42-.847 4.594 4.594 0 0 1 1.66-.303c.579 0 1.132.1 1.66.303a4.779 4.779 0 0 1 1.42.846h-6.16Zm-1.15 1.431h8.46c.232.42.391.897.478 1.432H5.929a4.397 4.397 0 0 1 .477-1.432Zm-.499 2.864h9.459a4.52 4.52 0 0 1-.434 1.432H6.34a4.52 4.52 0 0 1-.434-1.432Zm4.73 4.1a4.855 4.855 0 0 1-1.758-.325 4.523 4.523 0 0 1-1.475-.912h6.443a4.836 4.836 0 0 1-1.475.912 4.685 4.685 0 0 1-1.736.325Z" fill="currentColor"/></svg>