<svg viewBox="0 0 24 24" fill="none" xmlns="http://www.w3.org/2000/svg"><path fill-rule="evenodd" clip-rule="evenodd" d="M12.114 20.227a7.971 7.971 0 0 1-4.079-1.084 8.02 8.02 0 0 1-2.95-2.95A7.97 7.97 0 0 1 4 12.112a7.97 7.97 0 0 1 1.085-4.078 8.02 8.02 0 0 1 2.95-2.95A7.97 7.97 0 0 1 12.114 4a7.97 7.97 0 0 1 4.078 1.085 8.02 8.02 0 0 1 2.95 2.95 7.971 7.971 0 0 1 1.085 4.079 7.971 7.971 0 0 1-1.084 4.078 8.02 8.02 0 0 1-2.95 2.95 7.971 7.971 0 0 1-4.08 1.085Zm0-4.773c.607 0 1.167-.148 1.68-.444a3.264 3.264 0 0 0 1.216-1.215 3.303 3.303 0 0 0 .444-1.681 3.31 3.31 0 0 0-.444-1.682 3.264 3.264 0 0 0-1.215-1.215 3.303 3.303 0 0 0-1.681-.444 3.31 3.31 0 0 0-1.682.444 3.265 3.265 0 0 0-1.215 1.215 3.304 3.304 0 0 0-.444 1.682c0 .607.148 1.167.444 1.68.297.514.702.92 1.215 1.216a3.303 3.303 0 0 0 1.682.444Z" fill="currentColor"/></svg>