<svg viewBox="0 0 24 24" fill="none" xmlns="http://www.w3.org/2000/svg"><path fill-rule="evenodd" clip-rule="evenodd" d="M12.112 3c1.648 0 3.167.409 4.555 1.226a9.183 9.183 0 0 1 3.309 3.308c.817 1.389 1.225 2.907 1.225 4.556s-.408 3.17-1.225 4.567a9.156 9.156 0 0 1-3.309 3.319c-1.388.817-2.907 1.225-4.555 1.225a8.877 8.877 0 0 1-4.567-1.225 9.13 9.13 0 0 1-3.32-3.32A8.878 8.878 0 0 1 3 12.09c0-1.649.409-3.167 1.226-4.556a9.157 9.157 0 0 1 3.319-3.308A8.878 8.878 0 0 1 12.112 3Zm0 2.278a6.62 6.62 0 0 0-3.428.922A6.93 6.93 0 0 0 6.2 8.684a6.58 6.58 0 0 0-.922 3.406 6.62 6.62 0 0 0 .922 3.428A6.93 6.93 0 0 0 8.684 18a6.62 6.62 0 0 0 3.428.923 6.58 6.58 0 0 0 3.406-.922A6.93 6.93 0 0 0 18 15.518a6.62 6.62 0 0 0 .923-3.428 6.58 6.58 0 0 0-.922-3.406A6.93 6.93 0 0 0 15.518 6.2a6.58 6.58 0 0 0-3.406-.922Zm.434 1.866c.1 0 .188.036.26.108.072.072.108.16.108.26V11.7l3.601 2.43a.393.393 0 0 1 .174.325.389.389 0 0 1-.065.196l-.52.846a.534.534 0 0 1-.24.173h-.086a.419.419 0 0 1-.217-.065l-4.187-2.798-.109-.065a.496.496 0 0 1-.108-.282V7.512c0-.1.036-.188.108-.26a.495.495 0 0 1 .282-.108h.998Z" fill="currentColor"/></svg>