<svg viewBox="0 0 24 24" fill="none" xmlns="http://www.w3.org/2000/svg"><path fill-rule="evenodd" clip-rule="evenodd" d="M11.135 3.412c.188-.26.427-.398.716-.412.29.014.528.152.716.412.03.044.101.195.217.456l1.432 5.185c0 .072.05.144.152.217a.373.373 0 0 0 .238.086h4.99c.145 0 .29.022.434.065.202.058.369.16.499.304a.61.61 0 0 1 .174.52c0 .189-.073.391-.218.608-.043.058-.159.16-.347.304l-3.991 2.625c-.03.014-.069.065-.12.152-.05.087-.068.159-.054.217v.087l1.757 5.141c.058.16.087.325.087.5 0 .216-.05.397-.152.541a.827.827 0 0 1-.293.25.763.763 0 0 1-.357.098h-.022a1.455 1.455 0 0 1-.38-.076.93.93 0 0 1-.25-.141 1.095 1.095 0 0 0-.151-.109L12.09 17.08c-.043-.043-.116-.064-.217-.064-.101 0-.166.021-.195.064L7.75 20.42c-.13.102-.246.178-.347.228-.101.05-.246.083-.434.098a.689.689 0 0 1-.38-.076.635.635 0 0 1-.292-.25.933.933 0 0 1-.174-.564c0-.1.029-.253.087-.455l1.562-5.12v-.13a.448.448 0 0 0-.065-.206c-.044-.08-.08-.127-.109-.141l-4.013-2.647a1.859 1.859 0 0 1-.347-.304.923.923 0 0 1-.239-.607c0-.203.058-.376.174-.52.13-.131.245-.218.347-.261.188-.072.383-.109.585-.109h4.99a.373.373 0 0 0 .239-.086c.1-.073.152-.145.152-.217l1.453-5.185a1.53 1.53 0 0 1 .195-.456Zm-.89 7.073c-.36.26-.744.39-1.149.39H5.93l2.668 1.736c.304.216.52.55.65.997.044.145.066.326.066.543 0 .26-.05.513-.152.76l-.933 3.123 2.387-2.04c.332-.332.752-.498 1.258-.498.492 0 .897.144 1.215.434l2.581 2.104-1.04-3.124a1.824 1.824 0 0 1-.175-.824c0-.217.015-.37.044-.456.13-.477.347-.817.65-1.02l2.67-1.735h-3.19c-.405 0-.788-.13-1.15-.39-.376-.304-.614-.666-.716-1.085l-.89-3.19-.91 3.19c-.101.42-.34.78-.716 1.085Z" fill="currentColor"/></svg>