<svg viewBox="0 0 24 24" fill="none" xmlns="http://www.w3.org/2000/svg"><path fill-rule="evenodd" clip-rule="evenodd" d="M7.25 3c.955 0 1.833.235 2.636.705a5.253 5.253 0 0 1 1.909 1.91c.47.802.705 1.68.705 2.635v2.386h7.398c.202 0 .372.07.51.207a.692.692 0 0 1 .206.51v8.113a.692.692 0 0 1-.207.51.692.692 0 0 1-.51.206H8.92a.703.703 0 0 1-.499-.206.675.675 0 0 1-.216-.51v-8.114c0-.202.072-.372.216-.51a.703.703 0 0 1 .5-.206h1.193V8.25a2.849 2.849 0 0 0-1.421-2.484 2.849 2.849 0 0 0-1.443-.38 2.849 2.849 0 0 0-2.484 1.421 2.85 2.85 0 0 0-.38 1.443v2.386H2V8.25c0-.955.235-1.833.705-2.636a5.253 5.253 0 0 1 1.91-1.909A5.123 5.123 0 0 1 7.25 3Zm7.16 9.546c-.391 0-.728.14-1.01.423a1.377 1.377 0 0 0-.423 1.008v2.864c0 .39.141.727.423 1.009a1.38 1.38 0 0 0 1.01.423c.39 0 .726-.141 1.008-.423a1.38 1.38 0 0 0 .423-1.01v-2.863c0-.39-.141-.726-.423-1.008a1.377 1.377 0 0 0-1.009-.423Z" fill="currentColor"/></svg>