<svg viewBox="0 0 24 24" fill="none" xmlns="http://www.w3.org/2000/svg"><path fill-rule="evenodd" clip-rule="evenodd" d="M12.022 20.818c-1.663 0-3.193-.409-4.588-1.226a9.132 9.132 0 0 1-3.32-3.319c-.817-1.396-1.225-2.925-1.225-4.588 0-1.649.408-3.168 1.225-4.556a9.157 9.157 0 0 1 3.32-3.308c1.395-.817 2.925-1.226 4.588-1.226 1.649 0 3.167.409 4.556 1.226a9.183 9.183 0 0 1 3.308 3.308 8.824 8.824 0 0 1 1.226 4.556c0 1.663-.409 3.192-1.226 4.588a9.158 9.158 0 0 1-3.308 3.32c-1.389.817-2.907 1.225-4.556 1.225Zm1.02-3.254v-7.333l3.254 3.32h.13l1.388-1.432c.03 0 .044-.011.044-.033 0-.021-.015-.032-.044-.032L13.41 7.67l-.368-.39v-.043c0-.015-.008-.022-.022-.022h-.065l-.933-.976h-.108l-.955.976-.434.455-4.382 4.383c-.015 0-.022.01-.022.032s.007.033.022.033L7.53 13.55h.109l3.319-3.362v7.376c0 .029.007.043.022.043h2.039c.014 0 .022-.014.022-.043Z" fill="currentColor"/></svg>