<svg viewBox="0 0 24 24" fill="none" xmlns="http://www.w3.org/2000/svg"><path fill-rule="evenodd" clip-rule="evenodd" d="M11.636 3c.781 0 1.5.192 2.159.575a4.257 4.257 0 0 1 1.562 1.562c.383.658.575 1.377.575 2.158 0 .868-.235 1.653-.705 2.354a4.354 4.354 0 0 1-1.855 1.573c1.128.145 2.14.42 3.037.825.897.404 1.598.9 2.104 1.486.507.585.76 1.21.76 1.876v3.341c0 .405-.141.745-.423 1.02a1.395 1.395 0 0 1-1.01.412H5.433c-.405 0-.745-.138-1.02-.412A1.385 1.385 0 0 1 4 18.75v-3.34c0-.666.253-1.292.76-1.877.506-.586 1.207-1.082 2.104-1.486.896-.405 1.909-.68 3.037-.825A4.354 4.354 0 0 1 8.046 9.65a4.134 4.134 0 0 1-.705-2.354c0-.78.192-1.5.575-2.158a4.258 4.258 0 0 1 1.562-1.562A4.213 4.213 0 0 1 11.636 3Z" fill="currentColor"/></svg>