<svg viewBox="0 0 24 24" fill="none" xmlns="http://www.w3.org/2000/svg"><path fill-rule="evenodd" clip-rule="evenodd" d="M12.068 7c1.822 0 3.518.427 5.088 1.28a10.715 10.715 0 0 1 3.829 3.471c.115.16.173.362.173.607 0 .217-.058.42-.174.608a10.714 10.714 0 0 1-3.829 3.471 10.482 10.482 0 0 1-5.087 1.28c-1.822 0-3.518-.427-5.087-1.28a10.713 10.713 0 0 1-3.83-3.471c-.1-.16-.151-.362-.151-.607 0-.26.05-.463.152-.608A10.714 10.714 0 0 1 6.98 8.28 10.482 10.482 0 0 1 12.068 7Zm0 1.063c-.78 0-1.5.192-2.158.575A4.258 4.258 0 0 0 8.348 10.2a4.213 4.213 0 0 0-.575 2.159c0 .78.191 1.5.575 2.158a4.258 4.258 0 0 0 1.562 1.562 4.213 4.213 0 0 0 2.158.575c.781 0 1.5-.192 2.159-.575a4.257 4.257 0 0 0 1.562-1.562 4.212 4.212 0 0 0 .575-2.159c0-.78-.192-1.5-.575-2.158a4.258 4.258 0 0 0-1.562-1.562 4.213 4.213 0 0 0-2.159-.575Zm0 2.386c.535 0 .987.185 1.356.554.369.368.553.82.553 1.355 0 .536-.184.988-.553 1.356-.369.37-.82.554-1.356.554-.535 0-.987-.185-1.356-.554a1.844 1.844 0 0 1-.553-1.356c0-.535.184-.987.553-1.355.37-.37.821-.554 1.356-.554Z" fill="currentColor"/></svg>